<svg width="198" height="22" viewBox="0 0 198 22" fill="none" xmlns="http://www.w3.org/2000/svg">
<g filter="url(#filter0_f_181_6)">
<path d="M180.285 20.6291C177.871 18.7031 182.806 13.1267 182.806 13.1267C182.806 13.1267 175.974 11.8057 176.729 9.04528C177.496 6.23718 184.172 9.04528 184.172 9.04528C184.172 9.04528 183.529 1.01779 186.833 1.00033C190.143 0.98283 189.542 9.04528 189.542 9.04528C189.542 9.04528 196.146 6.26307 196.938 9.04528C197.721 11.7977 190.861 13.1267 190.861 13.1267C190.861 13.1267 195.829 18.6776 193.428 20.6291C190.958 22.6368 186.833 15.8399 186.833 15.8399C186.833 15.8399 182.762 22.605 180.285 20.6291Z" fill="white"/>
<path d="M28.2446 20.6055C27.4909 20.6055 26.745 20.5268 26.007 20.3696C25.269 20.1966 24.6016 19.9606 24.0049 19.6618C23.4082 19.363 22.9293 19.0012 22.5682 18.5765C22.2227 18.1519 22.05 17.6722 22.05 17.1374C22.05 16.4768 22.2463 15.9657 22.6388 15.6039C23.0471 15.2264 23.5417 15.0377 24.1227 15.0377C24.6566 15.0377 25.0963 15.1242 25.4417 15.2972C25.7872 15.4545 26.1012 15.6197 26.3838 15.7927C26.6822 15.9499 26.9962 16.0286 27.326 16.0286C27.8442 16.0286 28.1033 15.8241 28.1033 15.4152C28.1033 15.2107 27.9227 15.0298 27.5615 14.8726C27.2004 14.7153 26.7372 14.5344 26.1719 14.3299C25.6066 14.1097 25.0177 13.8188 24.4053 13.457C23.4946 12.9065 22.8744 12.3167 22.5446 11.6876C22.2149 11.0428 22.05 10.2642 22.05 9.35199C22.05 8.42402 22.3405 7.55898 22.9215 6.75684C23.5025 5.9547 24.2876 5.30984 25.2768 4.82227C26.2661 4.3347 27.3731 4.09091 28.5979 4.09091C29.7756 4.09091 30.8433 4.27178 31.8012 4.63353C32.759 4.99528 33.5127 5.48286 34.0623 6.09625C34.6276 6.69393 34.9103 7.3781 34.9103 8.14878C34.9103 8.77791 34.7768 9.28121 34.5098 9.65869C34.2586 10.0362 33.9367 10.3114 33.5441 10.4844C33.1673 10.6574 32.7983 10.7439 32.4371 10.7439C31.9032 10.7439 31.5028 10.7125 31.2359 10.6496C30.969 10.5866 30.757 10.5237 30.5999 10.4608C30.4586 10.3822 30.3016 10.3114 30.1289 10.2485C29.9719 10.1856 29.7285 10.1541 29.3987 10.1541C29.2103 10.1541 29.0219 10.217 28.8334 10.3429C28.645 10.4687 28.5508 10.6574 28.5508 10.9091C28.5508 11.145 28.7157 11.3337 29.0454 11.4753C29.3909 11.6011 29.752 11.7348 30.1289 11.8764C31.5264 12.3797 32.5863 12.9773 33.3086 13.6694C34.0309 14.3457 34.3921 15.2422 34.3921 16.3589C34.3921 17.6958 33.8503 18.7417 32.7669 19.4966C31.6991 20.2359 30.1917 20.6055 28.2446 20.6055Z" fill="white"/>
<path d="M43.8647 20.5347C43.0796 20.5347 42.4829 20.2752 42.0746 19.7562C41.6663 19.2371 41.3837 18.4665 41.2267 17.4441C41.0854 16.4061 41.0147 15.1242 41.0147 13.5986C41.0147 13.0481 41.0225 12.5291 41.0382 12.0415C41.054 11.5539 41.0697 11.0978 41.0854 10.6732C39.2011 10.5788 37.8193 10.3114 36.9399 9.87102C36.0606 9.43063 35.6209 8.66781 35.6209 7.58257C35.6209 6.22995 36.304 5.31771 37.6701 4.84586C39.0519 4.37402 41.1246 4.1381 43.8882 4.1381C46.6676 4.1381 48.756 4.37402 50.1535 4.84586C51.5667 5.31771 52.2733 6.22995 52.2733 7.58257C52.2733 8.65208 51.8258 9.4149 50.9308 9.87102C50.0514 10.3114 48.6775 10.5788 46.8089 10.6732C46.8403 11.0978 46.8638 11.5539 46.8795 12.0415C46.8952 12.5291 46.9031 13.0481 46.9031 13.5986C46.9031 16.005 46.6911 17.7666 46.2671 18.8832C45.8432 19.9842 45.0424 20.5347 43.8647 20.5347Z" fill="white"/>
<path d="M55.6006 20.6055C54.894 20.6055 54.3052 20.3774 53.8341 19.9213C53.3787 19.4495 53.0176 18.8282 52.7506 18.0575C52.4837 17.2711 52.2953 16.4139 52.1854 15.486C52.0911 14.558 52.044 13.6379 52.044 12.7257C52.044 11.6562 52.1854 10.6102 52.468 9.58791C52.7663 8.56558 53.2139 7.64548 53.8106 6.82762C54.423 5.99402 55.1924 5.33344 56.1188 4.84586C57.0453 4.35829 58.1444 4.1145 59.4163 4.1145C60.7039 4.1145 61.8659 4.38188 62.9023 4.91664C63.9543 5.4514 64.7944 6.21422 65.4225 7.20509C66.0506 8.19597 66.3646 9.37558 66.3646 10.7439C66.3646 11.9393 66.1841 12.9773 65.8229 13.8581C65.4775 14.7231 65.0142 15.4388 64.4332 16.005C64.6688 16.3667 64.8572 16.7521 64.9985 17.161C65.1399 17.5699 65.2105 17.9632 65.2105 18.3406C65.2105 18.781 65.0928 19.1742 64.8572 19.5202C64.6217 19.8505 64.3155 20.11 63.9386 20.2988C63.5775 20.4875 63.1928 20.5819 62.7845 20.5819C62.439 20.5819 62.1171 20.5268 61.8188 20.4167C61.5204 20.3066 61.1907 20.1179 60.8295 19.8505C60.4998 19.5989 60.2093 19.2686 59.9581 18.8597C59.7068 18.435 59.5027 18.0182 59.3457 17.6093C58.7961 17.5464 58.2779 17.4127 57.7911 17.2082C57.8696 17.5857 57.9089 17.971 57.9089 18.3642C57.9246 18.7574 57.8618 19.127 57.7205 19.4731C57.5948 19.8033 57.3593 20.0786 57.0139 20.2988C56.6841 20.5033 56.213 20.6055 55.6006 20.6055ZM59.6519 13.8581C60.2171 13.8581 60.7039 13.6615 61.1122 13.2683C61.5362 12.8594 61.7481 12.3875 61.7481 11.8528C61.7481 11.3023 61.5362 10.8304 61.1122 10.4372C60.7039 10.0283 60.2171 9.82383 59.6519 9.82383C59.0866 9.82383 58.5919 10.0283 58.168 10.4372C57.7597 10.8304 57.5556 11.3023 57.5556 11.8528C57.5556 12.3875 57.7597 12.8594 58.168 13.2683C58.5919 13.6615 59.0866 13.8581 59.6519 13.8581Z" fill="white"/>
<path d="M75.1189 20.6055C74.0354 20.6212 73.0147 20.4246 72.0569 20.0157C71.099 19.6067 70.2511 19.0248 69.5131 18.2698C68.7751 17.5149 68.1941 16.6341 67.7701 15.6275C67.3462 14.6209 67.1185 13.5278 67.0871 12.3482C67.0714 11.2158 67.2677 10.1541 67.6759 9.16325C68.0842 8.17237 68.6573 7.29946 69.3953 6.54451C70.1333 5.78956 70.9891 5.19975 71.9627 4.77509C72.9362 4.3347 73.9883 4.1145 75.1189 4.1145C76.2023 4.09877 77.223 4.29538 78.1808 4.70431C79.1387 5.11324 79.9866 5.69519 80.7246 6.45014C81.4626 7.18936 82.0436 8.06228 82.4676 9.06888C82.9073 10.0755 83.1349 11.1686 83.1507 12.3482C83.1821 13.4806 83.0341 14.4266 82.6101 15.4175C82.2019 16.4084 81.6287 17.2813 80.8907 18.0362C80.1527 18.7754 79.2407 19.4809 78.2515 19.9213C77.2779 20.346 76.2337 20.574 75.1189 20.6055ZM75.1895 16.005C75.8804 16.005 76.485 15.7533 77.0032 15.25C77.537 14.7467 77.7961 14.0626 77.7804 13.1975C77.7804 12.3167 77.5213 11.6247 77.0032 11.1214C76.485 10.6181 75.8804 10.3665 75.1895 10.3665C74.4986 10.3665 73.8941 10.6181 73.3759 11.1214C72.8577 11.6247 72.5986 12.3167 72.5986 13.1975C72.5986 14.0626 72.8577 14.7467 73.3759 15.25C73.8941 15.7533 74.4986 16.005 75.1895 16.005Z" fill="white"/>
<path d="M92.9935 20.5819C92.4439 20.5819 91.9885 20.4403 91.6274 20.1572C91.2819 19.8584 91.0464 19.4888 90.9208 19.0484C90.7952 18.608 90.7166 18.1204 90.6852 17.5857C90.6538 17.0352 90.6381 16.4847 90.6381 15.9342C90.6538 15.368 90.6538 14.849 90.6381 14.3771C90.6224 13.9053 90.5753 13.5278 90.4968 13.2447C90.4183 12.9616 90.2691 12.82 90.0493 12.82C89.7352 12.82 89.5154 12.9537 89.3898 13.2211C89.2642 13.4728 89.2014 13.8188 89.2014 14.2592C89.2014 14.6838 89.2249 15.1478 89.272 15.6511C89.3348 16.1544 89.3977 16.6577 89.4605 17.161C89.5233 17.6486 89.5547 18.0811 89.5547 18.4586C89.5547 19.245 89.3741 19.7876 89.0129 20.0865C88.6675 20.3853 88.1886 20.5347 87.5762 20.5347C86.9638 20.5347 86.422 20.2831 85.951 19.7798C85.4956 19.2607 85.1109 18.6001 84.7968 17.798C84.4985 16.9801 84.2708 16.0994 84.1138 15.1557C83.9567 14.212 83.8782 13.3155 83.8782 12.4662C83.8782 11.4281 83.9881 10.4215 84.208 9.44636C84.4435 8.47121 84.789 7.5983 85.2443 6.82762C85.7154 6.05694 86.2964 5.44353 86.9873 4.98742C87.6782 4.5313 88.4948 4.30324 89.4369 4.30324C90.1749 4.30324 90.7873 4.46839 91.2741 4.79868C91.7608 5.11324 92.1456 5.51431 92.4282 6.00189C92.7266 6.48946 92.9307 6.9849 93.0406 7.4882C93.1505 6.9849 93.3468 6.48946 93.6294 6.00189C93.9121 5.51431 94.2968 5.11324 94.7836 4.79868C95.2703 4.46839 95.8749 4.30324 96.5972 4.30324C97.7906 4.30324 98.8034 4.67285 99.6356 5.41208C100.484 6.1513 101.127 7.17364 101.567 8.47907C102.007 9.76878 102.227 11.2708 102.227 12.9852C102.227 13.7873 102.14 14.6366 101.967 15.5331C101.795 16.4139 101.543 17.2397 101.214 18.0103C100.9 18.7653 100.515 19.3865 100.06 19.8741C99.6042 20.346 99.086 20.5819 98.505 20.5819C97.8769 20.5819 97.3823 20.4246 97.0212 20.11C96.66 19.7955 96.4794 19.245 96.4794 18.4586C96.4794 18.0811 96.5108 17.6486 96.5736 17.161C96.6365 16.6577 96.6993 16.1544 96.7621 15.6511C96.8249 15.1478 96.8563 14.6838 96.8563 14.2592C96.8563 13.8188 96.7935 13.4728 96.6679 13.2211C96.5579 12.9537 96.346 12.82 96.0319 12.82C95.8121 12.82 95.6551 12.9616 95.5608 13.2447C95.4823 13.5278 95.4274 13.9053 95.396 14.3771C95.3803 14.8332 95.3724 15.3444 95.3724 15.9106C95.3724 16.4611 95.3567 17.0116 95.3253 17.5621C95.3096 18.1126 95.2389 18.608 95.1133 19.0484C95.0034 19.4888 94.7679 19.8584 94.4067 20.1572C94.0456 20.4403 93.5745 20.5819 92.9935 20.5819Z" fill="white"/>
<path d="M106.621 20.6291C105.537 20.6291 104.682 20.1022 104.054 19.0484C103.441 17.9946 103.08 16.6105 102.97 14.8962C102.844 12.7729 103.072 10.9012 103.653 9.28121C104.25 7.64548 105.145 6.3715 106.338 5.45926C107.532 4.54703 108.953 4.09091 110.601 4.09091C112.266 4.09091 113.687 4.54703 114.865 5.45926C116.058 6.3715 116.945 7.63762 117.526 9.25762C118.123 10.8776 118.351 12.7571 118.209 14.8962C118.099 16.6577 117.73 18.0497 117.102 19.072C116.49 20.0943 115.642 20.6055 114.558 20.6055C113.946 20.6055 113.475 20.4954 113.145 20.2752C112.816 20.0393 112.58 19.7483 112.439 19.4023C112.313 19.0405 112.25 18.6788 112.25 18.317C112.25 17.9396 112.274 17.6171 112.321 17.3498C111.818 17.3655 111.23 17.3812 110.554 17.3969C109.879 17.3969 109.314 17.3812 108.859 17.3498C108.906 17.6171 108.929 17.9396 108.929 18.317C108.929 18.6788 108.859 19.0405 108.717 19.4023C108.592 19.7483 108.364 20.0393 108.034 20.2752C107.704 20.5111 107.233 20.6291 106.621 20.6291ZM108.694 13.1503C109.934 13.1031 111.175 13.1031 112.415 13.1503C112.494 12.5998 112.486 12.0729 112.392 11.5696C112.297 11.0663 112.101 10.6574 111.803 10.3429C111.504 10.0283 111.08 9.87102 110.531 9.87102C109.981 9.87102 109.557 10.0283 109.259 10.3429C108.976 10.6574 108.788 11.0663 108.694 11.5696C108.615 12.0572 108.615 12.5841 108.694 13.1503Z" fill="white"/>
<path d="M122.389 20.5819C121.902 20.5819 121.47 20.3853 121.094 19.9921C120.732 19.5989 120.426 19.0799 120.175 18.435C119.939 17.7901 119.743 17.0824 119.586 16.3117C119.445 15.541 119.343 14.7703 119.28 13.9997C119.217 13.2132 119.186 12.5055 119.186 11.8764C119.186 11.0742 119.248 10.2249 119.374 9.32839C119.5 8.43189 119.72 7.59043 120.034 6.80402C120.348 6.00189 120.779 5.34916 121.329 4.84586C121.879 4.34256 122.585 4.09091 123.449 4.09091C124.046 4.09091 124.564 4.28751 125.003 4.68072C125.459 5.05819 125.867 5.59296 126.228 6.28499C126.589 6.96131 126.935 7.73985 127.265 8.62063C127.594 9.5014 127.948 10.4372 128.324 11.4281C128.262 10.0755 128.301 8.84868 128.442 7.74771C128.599 6.63101 128.913 5.74237 129.384 5.08179C129.855 4.4212 130.523 4.09091 131.386 4.09091C132.124 4.09091 132.713 4.34256 133.153 4.84586C133.608 5.34916 133.954 6.00189 134.189 6.80402C134.425 7.59043 134.582 8.43189 134.66 9.32839C134.755 10.2249 134.802 11.0742 134.802 11.8764C134.802 12.5212 134.755 13.229 134.66 13.9997C134.566 14.7703 134.409 15.541 134.189 16.3117C133.969 17.0824 133.671 17.7901 133.294 18.435C132.917 19.0799 132.454 19.5989 131.905 19.9921C131.371 20.3853 130.727 20.5819 129.973 20.5819C129.298 20.5819 128.717 20.3696 128.23 19.9449C127.759 19.5045 127.335 18.9304 126.958 18.2227C126.597 17.4992 126.26 16.7049 125.946 15.8398C125.632 14.9748 125.302 14.1097 124.956 13.2447C124.972 14.3299 124.972 15.3287 124.956 16.2409C124.941 17.1374 124.854 17.9081 124.697 18.553C124.556 19.1978 124.305 19.7011 123.943 20.0629C123.582 20.4089 123.064 20.5819 122.389 20.5819Z" fill="white"/>
<path d="M140.357 20.5111C139.807 20.5111 139.25 20.5033 138.685 20.4875C138.119 20.4561 137.601 20.3774 137.13 20.2516C136.659 20.1258 136.274 19.9134 135.976 19.6146C135.693 19.3158 135.552 18.899 135.552 18.3642C135.552 17.6722 135.787 17.1846 136.259 16.9015C136.73 16.6027 137.303 16.4061 137.978 16.3117C137.931 15.7612 137.899 15.1635 137.884 14.5187C137.868 13.8581 137.86 13.1503 137.86 12.3954C137.86 11.7033 137.868 11.0506 137.884 10.4372C137.899 9.8081 137.923 9.23403 137.954 8.715C137.154 8.62063 136.463 8.41616 135.882 8.1016C135.316 7.78703 135.034 7.22868 135.034 6.42655C135.034 5.82888 135.191 5.37276 135.505 5.05819C135.819 4.7279 136.235 4.49984 136.753 4.37402C137.287 4.23246 137.86 4.14596 138.473 4.1145C139.101 4.08305 139.721 4.06732 140.333 4.06732C140.946 4.06732 141.566 4.08305 142.194 4.1145C142.822 4.14596 143.395 4.23246 143.913 4.37402C144.432 4.49984 144.848 4.7279 145.162 5.05819C145.492 5.37276 145.656 5.82888 145.656 6.42655C145.656 6.96131 145.523 7.38597 145.256 7.70053C144.989 8.01509 144.628 8.25101 144.173 8.4083C143.717 8.54985 143.223 8.65208 142.689 8.715C142.736 9.23403 142.767 9.80024 142.783 10.4136C142.799 11.027 142.806 11.6876 142.806 12.3954C142.806 13.1503 142.791 13.8581 142.759 14.5187C142.744 15.1635 142.712 15.7612 142.665 16.3117C143.372 16.3903 143.968 16.5791 144.455 16.8779C144.958 17.161 145.209 17.6565 145.209 18.3642C145.209 18.899 145.06 19.3158 144.761 19.6146C144.479 19.9134 144.094 20.1258 143.607 20.2516C143.136 20.3774 142.618 20.4561 142.053 20.4875C141.487 20.5033 140.922 20.5111 140.357 20.5111Z" fill="white"/>
<path d="M149.565 20.6291C148.481 20.6291 147.626 20.1022 146.998 19.0484C146.385 17.9946 146.024 16.6105 145.914 14.8962C145.788 12.7729 146.016 10.9012 146.597 9.28121C147.194 7.64548 148.089 6.3715 149.282 5.45926C150.476 4.54703 151.897 4.09091 153.545 4.09091C155.21 4.09091 156.631 4.54703 157.809 5.45926C159.002 6.3715 159.889 7.63762 160.47 9.25762C161.067 10.8776 161.295 12.7571 161.153 14.8962C161.043 16.6577 160.674 18.0497 160.046 19.072C159.434 20.0943 158.586 20.6055 157.502 20.6055C156.89 20.6055 156.419 20.4954 156.089 20.2752C155.759 20.0393 155.524 19.7483 155.383 19.4023C155.257 19.0405 155.194 18.6788 155.194 18.317C155.194 17.9396 155.218 17.6171 155.265 17.3498C154.762 17.3655 154.174 17.3812 153.498 17.3969C152.823 17.3969 152.258 17.3812 151.802 17.3498C151.85 17.6171 151.873 17.9396 151.873 18.317C151.873 18.6788 151.802 19.0405 151.661 19.4023C151.536 19.7483 151.308 20.0393 150.978 20.2752C150.648 20.5111 150.177 20.6291 149.565 20.6291ZM151.638 13.1503C152.878 13.1031 154.119 13.1031 155.359 13.1503C155.438 12.5998 155.43 12.0729 155.336 11.5696C155.241 11.0663 155.045 10.6574 154.747 10.3429C154.448 10.0283 154.024 9.87102 153.475 9.87102C152.925 9.87102 152.501 10.0283 152.203 10.3429C151.92 10.6574 151.732 11.0663 151.638 11.5696C151.559 12.0572 151.559 12.5841 151.638 13.1503Z" fill="white"/>
<path d="M164.998 20.5819C164.338 20.5819 163.828 20.3932 163.467 20.0157C163.106 19.6225 162.846 19.1113 162.689 18.4822C162.532 17.8373 162.438 17.1296 162.407 16.3589C162.375 15.5882 162.36 14.8175 162.36 14.0468C162.36 13.6694 162.36 13.1818 162.36 12.5841C162.375 11.9707 162.383 11.3495 162.383 10.7203C162.399 10.0755 162.415 9.50927 162.43 9.0217C162.446 8.51839 162.462 8.17237 162.477 7.98364C162.509 6.85121 162.744 5.91538 163.184 5.17615C163.624 4.43693 164.275 4.06732 165.139 4.06732C166.128 4.06732 166.803 4.49984 167.165 5.36489C167.541 6.21421 167.73 7.44101 167.73 9.04529C167.73 9.2183 167.73 9.45422 167.73 9.75305C168.028 9.20257 168.389 8.6049 168.813 7.96004C169.253 7.31519 169.732 6.70179 170.25 6.11985C170.768 5.53791 171.318 5.06606 171.899 4.70431C172.48 4.32683 173.069 4.1381 173.665 4.1381C174.403 4.1381 175.008 4.4212 175.479 4.98742C175.966 5.5379 176.209 6.22208 176.209 7.03995C176.209 7.77917 175.989 8.50267 175.55 9.21043C175.126 9.90247 174.537 10.5316 173.783 11.0978C173.029 11.664 172.15 12.128 171.145 12.4897C171.726 12.7571 172.315 13.0796 172.912 13.457C173.508 13.8188 174.05 14.2277 174.537 14.6838C175.039 15.1242 175.44 15.6039 175.738 16.123C176.036 16.642 176.186 17.2003 176.186 17.798C176.186 18.4586 176.052 18.9933 175.785 19.4023C175.534 19.8112 175.204 20.11 174.796 20.2988C174.388 20.4875 173.956 20.5819 173.501 20.5819C172.7 20.5819 171.954 20.3224 171.263 19.8033C170.572 19.2843 169.928 18.608 169.332 17.7744C168.751 16.9408 168.209 16.0679 167.706 15.1557C167.706 15.8477 167.675 16.5162 167.612 17.161C167.565 17.8059 167.455 18.3878 167.282 18.9068C167.11 19.4259 166.843 19.8348 166.482 20.1336C166.12 20.4325 165.626 20.5819 164.998 20.5819Z" fill="white"/>
<path d="M4.61478 20.6288C2.20078 18.7028 7.13502 13.1264 7.13502 13.1264C7.13502 13.1264 0.303775 11.8054 1.05818 9.04499C1.82562 6.23689 8.50113 9.04499 8.50113 9.04499C8.50113 9.04499 7.85839 1.01749 11.1627 1.00003C14.4728 0.982537 13.8714 9.04499 13.8714 9.04499C13.8714 9.04499 20.4756 6.26278 21.2672 9.04499C22.0503 11.7974 15.1904 13.1264 15.1904 13.1264C15.1904 13.1264 20.1588 18.6773 17.7577 20.6288C15.2874 22.6365 11.1627 15.8396 11.1627 15.8396C11.1627 15.8396 7.09144 22.6047 4.61478 20.6288Z" fill="white"/>
<path d="M130.545 7.16949C130.545 7.16949 131.121 7.07898 131.302 6.89801C131.483 6.71705 131.47 6.2427 131.47 6.2427C131.47 6.2427 131.542 6.71705 131.723 6.89801C131.903 7.07898 132.395 7.16949 132.395 7.16949C132.395 7.16949 131.903 7.23953 131.723 7.42049C131.542 7.60146 131.47 8.09629 131.47 8.09629C131.47 8.09629 131.483 7.60146 131.302 7.4205C131.121 7.23953 130.545 7.16949 130.545 7.16949Z" fill="#E7E9FA"/>
<path d="M131.853 9.13552C131.853 9.13552 132.43 9.045 132.611 8.86404C132.791 8.68307 132.779 8.20872 132.779 8.20872C132.779 8.20872 132.85 8.68307 133.031 8.86404C133.212 9.045 133.704 9.13552 133.704 9.13552C133.704 9.13552 133.212 9.20555 133.031 9.38652C132.85 9.56748 132.779 10.0623 132.779 10.0623C132.779 10.0623 132.791 9.56748 132.611 9.38652C132.43 9.20555 131.853 9.13552 131.853 9.13552Z" fill="#E7E9FA"/>
<path d="M129.891 18.3103C129.891 18.3103 130.467 18.2198 130.648 18.0388C130.828 17.8578 130.816 17.3835 130.816 17.3835C130.816 17.3835 130.888 17.8578 131.068 18.0388C131.249 18.2198 131.741 18.3103 131.741 18.3103C131.741 18.3103 131.249 18.3803 131.068 18.5613C130.888 18.7422 130.816 19.2371 130.816 19.2371C130.816 19.2371 130.828 18.7422 130.648 18.5613C130.467 18.3803 129.891 18.3103 129.891 18.3103Z" fill="#E7E9FA"/>
<path d="M120.077 16.3443C120.077 16.3443 120.653 16.2537 120.834 16.0728C121.014 15.8918 121.002 15.4175 121.002 15.4175C121.002 15.4175 121.074 15.8918 121.254 16.0728C121.435 16.2537 121.927 16.3443 121.927 16.3443C121.927 16.3443 121.435 16.4143 121.254 16.5953C121.074 16.7762 121.002 17.271 121.002 17.271C121.002 17.271 121.014 16.7762 120.834 16.5953C120.653 16.4143 120.077 16.3443 120.077 16.3443Z" fill="#E7E9FA"/>
<path d="M136.433 18.9656C136.433 18.9656 137.01 18.8751 137.19 18.6941C137.371 18.5132 137.359 18.0388 137.359 18.0388C137.359 18.0388 137.43 18.5132 137.611 18.6941C137.792 18.8751 138.284 18.9656 138.284 18.9656C138.284 18.9656 137.792 19.0357 137.611 19.2166C137.43 19.3976 137.359 19.8924 137.359 19.8924C137.359 19.8924 137.371 19.3976 137.19 19.2166C137.01 19.0357 136.433 18.9656 136.433 18.9656Z" fill="#E7E9FA"/>
<path d="M163.258 6.51415C163.258 6.51415 163.835 6.42364 164.015 6.24267C164.196 6.06171 164.184 5.58736 164.184 5.58736C164.184 5.58736 164.255 6.06171 164.436 6.24267C164.617 6.42364 165.109 6.51415 165.109 6.51415C165.109 6.51415 164.617 6.58419 164.436 6.76515C164.255 6.94612 164.184 7.44094 164.184 7.44094C164.184 7.44094 164.196 6.94612 164.015 6.76515C163.835 6.58419 163.258 6.51415 163.258 6.51415Z" fill="#E7E9FA"/>
<path d="M164.567 8.48018C164.567 8.48018 165.143 8.38966 165.324 8.20869C165.505 8.02773 165.492 7.55338 165.492 7.55338C165.492 7.55338 165.564 8.02773 165.745 8.20869C165.925 8.38966 166.417 8.48018 166.417 8.48018C166.417 8.48018 165.925 8.55021 165.745 8.73117C165.564 8.91214 165.492 9.40697 165.492 9.40697C165.492 9.40697 165.505 8.91214 165.324 8.73118C165.143 8.55021 164.567 8.48018 164.567 8.48018Z" fill="#E7E9FA"/>
<path d="M173.072 5.85881C173.072 5.85881 173.649 5.7683 173.829 5.58733C174.01 5.40637 173.998 4.93202 173.998 4.93202C173.998 4.93202 174.069 5.40637 174.25 5.58733C174.431 5.7683 174.923 5.85881 174.923 5.85881C174.923 5.85881 174.431 5.92885 174.25 6.10981C174.069 6.29078 173.998 6.7856 173.998 6.7856C173.998 6.7856 174.01 6.29078 173.829 6.10981C173.649 5.92885 173.072 5.85881 173.072 5.85881Z" fill="#E7E9FA"/>
<path d="M149.519 7.16949C149.519 7.16949 150.095 7.07898 150.276 6.89801C150.456 6.71705 150.444 6.2427 150.444 6.2427C150.444 6.2427 150.516 6.71705 150.696 6.89801C150.877 7.07898 151.369 7.16949 151.369 7.16949C151.369 7.16949 150.877 7.23953 150.696 7.42049C150.516 7.60146 150.444 8.09629 150.444 8.09629C150.444 8.09629 150.456 7.60146 150.276 7.4205C150.095 7.23953 149.519 7.16949 149.519 7.16949Z" fill="#E7E9FA"/>
<path d="M142.322 5.85881C142.322 5.85881 142.898 5.7683 143.079 5.58733C143.26 5.40637 143.247 4.93202 143.247 4.93202C143.247 4.93202 143.319 5.40637 143.499 5.58733C143.68 5.7683 144.172 5.85881 144.172 5.85881C144.172 5.85881 143.68 5.92885 143.499 6.10981C143.319 6.29078 143.247 6.7856 143.247 6.7856C143.247 6.7856 143.26 6.29078 143.079 6.10981C142.898 5.92885 142.322 5.85881 142.322 5.85881Z" fill="#E7E9FA"/>
<path d="M186.158 3.89279C186.158 3.89279 186.734 3.80228 186.915 3.62131C187.095 3.44035 187.083 2.966 187.083 2.966C187.083 2.966 187.155 3.44035 187.335 3.62131C187.516 3.80228 188.008 3.89279 188.008 3.89279C188.008 3.89279 187.516 3.96283 187.335 4.14379C187.155 4.32476 187.083 4.81958 187.083 4.81958C187.083 4.81958 187.095 4.32476 186.915 4.14379C186.734 3.96283 186.158 3.89279 186.158 3.89279Z" fill="#E7E9FA"/>
<path d="M186.812 5.85873C186.812 5.85873 187.388 5.76822 187.569 5.58725C187.75 5.40629 187.737 4.93194 187.737 4.93194C187.737 4.93194 187.809 5.40629 187.99 5.58725C188.17 5.76822 188.662 5.85873 188.662 5.85873C188.662 5.85873 188.17 5.92877 187.99 6.10973C187.809 6.2907 187.737 6.78552 187.737 6.78552C187.737 6.78552 187.75 6.2907 187.569 6.10973C187.388 5.92877 186.812 5.85873 186.812 5.85873Z" fill="#E7E9FA"/>
<path d="M157.37 17.6549C157.37 17.6549 157.946 17.5644 158.127 17.3835C158.308 17.2025 158.295 16.7281 158.295 16.7281C158.295 16.7281 158.367 17.2025 158.548 17.3835C158.728 17.5644 159.22 17.6549 159.22 17.6549C159.22 17.6549 158.728 17.725 158.548 17.9059C158.367 18.0869 158.295 18.5817 158.295 18.5817C158.295 18.5817 158.308 18.0869 158.127 17.9059C157.946 17.725 157.37 17.6549 157.37 17.6549Z" fill="#E7E9FA"/>
<path d="M147.556 8.48018C147.556 8.48018 148.132 8.38966 148.313 8.20869C148.494 8.02773 148.481 7.55338 148.481 7.55338C148.481 7.55338 148.553 8.02773 148.734 8.20869C148.914 8.38966 149.406 8.48018 149.406 8.48018C149.406 8.48018 148.914 8.55021 148.734 8.73117C148.553 8.91214 148.481 9.40697 148.481 9.40697C148.481 9.40697 148.494 8.91214 148.313 8.73118C148.132 8.55021 147.556 8.48018 147.556 8.48018Z" fill="#E7E9FA"/>
</g>
<defs>
<filter id="filter0_f_181_6" x="0.7" y="0.7" width="196.6" height="20.6" filterUnits="userSpaceOnUse" color-interpolation-filters="sRGB">
<feFlood flood-opacity="0" result="BackgroundImageFix"/>
<feBlend mode="normal" in="SourceGraphic" in2="BackgroundImageFix" result="shape"/>
<feGaussianBlur stdDeviation="0.15" result="effect1_foregroundBlur_181_6"/>
</filter>
</defs>
</svg>
