<svg width="34" height="34" viewBox="0 0 34 34" fill="none" xmlns="http://www.w3.org/2000/svg">
<g filter="url(#filter0_f_54_2)">
<path d="M6.6899 32.4065C2.89009 29.3249 10.6569 20.4026 10.6569 20.4026C10.6569 20.4026 -0.0959018 18.2889 1.09158 13.8722C2.29958 9.37914 12.8073 13.8722 12.8073 13.8722C12.8073 13.8722 11.7956 1.02799 16.9968 1.00005C22.2071 0.972051 21.2604 13.8722 21.2604 13.8722C21.2604 13.8722 31.6559 9.42058 32.902 13.8722C34.1346 18.2761 23.3366 20.4026 23.3366 20.4026C23.3366 20.4026 31.1573 29.2841 27.3778 32.4065C23.4894 35.6189 16.9968 24.7436 16.9968 24.7436C16.9968 24.7436 10.5883 35.5681 6.6899 32.4065Z" fill="url(#paint0_linear_54_2)"/>
<path d="M15.9334 5.62807C15.9334 5.62807 16.8408 5.48325 17.1252 5.1937C17.4095 4.90415 17.3898 4.14516 17.3898 4.14516C17.3898 4.14516 17.5027 4.90415 17.7871 5.1937C18.0715 5.48325 18.8463 5.62807 18.8463 5.62807C18.8463 5.62807 18.0715 5.74012 17.7871 6.02968C17.5027 6.31923 17.3898 7.11095 17.3898 7.11095C17.3898 7.11095 17.4095 6.31923 17.1252 6.02968C16.8408 5.74012 15.9334 5.62807 15.9334 5.62807Z" fill="#E7E9FA"/>
<path d="M16.9632 8.77363C16.9632 8.77363 17.8706 8.62878 18.155 8.33923C18.4394 8.04968 18.4197 7.29072 18.4197 7.29072C18.4197 7.29072 18.5326 8.04968 18.817 8.33923C19.1014 8.62878 19.8761 8.77363 19.8761 8.77363C19.8761 8.77363 19.1014 8.88568 18.817 9.17523C18.5326 9.46478 18.4197 10.2565 18.4197 10.2565C18.4197 10.2565 18.4394 9.46478 18.155 9.17523C17.8706 8.88568 16.9632 8.77363 16.9632 8.77363Z" fill="#E7E9FA"/>
</g>
<defs>
<filter id="filter0_f_54_2" x="0.7" y="0.7" width="32.6" height="32.6" filterUnits="userSpaceOnUse" color-interpolation-filters="sRGB">
<feFlood flood-opacity="0" result="BackgroundImageFix"/>
<feBlend mode="normal" in="SourceGraphic" in2="BackgroundImageFix" result="shape"/>
<feGaussianBlur stdDeviation="0.15" result="effect1_foregroundBlur_54_2"/>
</filter>
<linearGradient id="paint0_linear_54_2" x1="33.0457" y1="16.7282" x2="1" y2="16.7282" gradientUnits="userSpaceOnUse">
<stop stop-color="#111A3A"/>
<stop offset="1" stop-color="#333C65"/>
</linearGradient>
</defs>
</svg>
