<svg width="384" height="60" viewBox="0 0 384 60" fill="none" xmlns="http://www.w3.org/2000/svg">
<path d="M345.015 38.0176C340.369 34.2874 349.864 23.4871 349.864 23.4871C349.864 23.4871 336.719 20.9285 338.17 15.5821C339.647 10.1434 352.493 15.5821 352.493 15.5821C352.493 15.5821 351.257 0.0344606 357.615 0.000632996C363.985 -0.0332543 362.828 15.5821 362.828 15.5821C362.828 15.5821 375.537 10.1935 377.06 15.5821C378.567 20.9129 365.366 23.4871 365.366 23.4871C365.366 23.4871 374.927 34.2379 370.307 38.0176C365.553 41.9061 357.615 28.7418 357.615 28.7418C357.615 28.7418 349.781 41.8446 345.015 38.0176Z" fill="url(#paint0_linear_56_13)"/>
<path d="M52.4292 37.9719C50.9787 37.9719 49.5434 37.8196 48.1232 37.5149C46.7029 37.1799 45.4187 36.7229 44.2704 36.1441C43.1222 35.5654 42.2005 34.8647 41.5055 34.0422C40.8407 33.2198 40.5083 32.2907 40.5083 31.2549C40.5083 29.9755 40.8861 28.9855 41.6415 28.2849C42.4272 27.5538 43.379 27.1882 44.4971 27.1882C45.5244 27.1882 46.3705 27.3558 47.0353 27.6909C47.7001 27.9955 48.3045 28.3153 48.8484 28.6504C49.4225 28.955 50.0269 29.1074 50.6614 29.1074C51.6586 29.1074 52.1572 28.7113 52.1572 27.9193C52.1572 27.5233 51.8097 27.173 51.1147 26.8684C50.4197 26.5638 49.5283 26.2134 48.4404 25.8174C47.3526 25.391 46.2195 24.8274 45.041 24.1268C43.2884 23.0606 42.0948 21.9182 41.4602 20.6998C40.8256 19.4508 40.5083 17.9429 40.5083 16.1761C40.5083 14.3788 41.0674 12.7034 42.1854 11.1498C43.3035 9.59626 44.8143 8.3473 46.718 7.40297C48.6217 6.45864 50.7521 5.98647 53.1091 5.98647C55.3754 5.98647 57.4302 6.33679 59.2734 7.03742C61.1167 7.73805 62.5671 8.68239 63.6248 9.87042C64.7126 11.028 65.2565 12.3531 65.2565 13.8458C65.2565 15.0642 64.9997 16.039 64.486 16.7701C64.0025 17.5012 63.383 18.0343 62.6276 18.3694C61.9024 18.7045 61.1923 18.872 60.4972 18.872C59.4699 18.872 58.6993 18.8111 58.1856 18.6893C57.6719 18.5674 57.264 18.4456 56.9618 18.3237C56.6898 18.1714 56.3877 18.0343 56.0553 17.9125C55.7531 17.7906 55.2847 17.7297 54.6502 17.7297C54.2875 17.7297 53.9249 17.8515 53.5623 18.0952C53.1997 18.3389 53.0184 18.7045 53.0184 19.1919C53.0184 19.6488 53.3357 20.0144 53.9703 20.2885C54.635 20.5322 55.3301 20.7911 56.0553 21.0653C58.7446 22.0401 60.7843 23.1977 62.1743 24.538C63.5643 25.8479 64.2593 27.5842 64.2593 29.7471C64.2593 32.3364 63.2168 34.3621 61.1318 35.8243C59.077 37.256 56.1761 37.9719 52.4292 37.9719Z" fill="url(#paint1_linear_56_13)"/>
<path d="M82.4883 37.8348C80.9774 37.8348 79.8292 37.3322 79.0435 36.3269C78.2579 35.3217 77.7139 33.829 77.4118 31.849C77.1398 29.8384 77.0038 27.3558 77.0038 24.4009C77.0038 23.3347 77.0189 22.3295 77.0491 21.3852C77.0794 20.4408 77.1096 19.5574 77.1398 18.735C73.5137 18.5522 70.8545 18.0343 69.1624 17.1814C67.4702 16.3284 66.6241 14.851 66.6241 12.7491C66.6241 10.1294 67.9386 8.36253 70.5675 7.44866C73.2266 6.53479 77.2153 6.07786 82.5336 6.07786C87.8821 6.07786 91.9011 6.53479 94.5904 7.44866C97.31 8.36253 98.6698 10.1294 98.6698 12.7491C98.6698 14.8205 97.8086 16.298 96.0862 17.1814C94.394 18.0343 91.75 18.5522 88.1541 18.735C88.2145 19.5574 88.2598 20.4408 88.2901 21.3852C88.3203 22.3295 88.3354 23.3347 88.3354 24.4009C88.3354 29.0617 87.9275 32.4734 87.1116 34.6363C86.2957 36.7686 84.7546 37.8348 82.4883 37.8348Z" fill="url(#paint2_linear_56_13)"/>
<path d="M105.073 37.9719C103.713 37.9719 102.58 37.5302 101.673 36.6468C100.797 35.7329 100.102 34.5296 99.5883 33.037C99.0747 31.5139 98.712 29.8537 98.5005 28.0564C98.3192 26.2591 98.2286 24.4771 98.2286 22.7103C98.2286 20.6388 98.5005 18.6131 99.0444 16.6331C99.6186 14.653 100.48 12.871 101.628 11.2869C102.807 9.67242 104.287 8.39299 106.07 7.44866C107.853 6.50433 109.968 6.03217 112.416 6.03217C114.894 6.03217 117.13 6.55003 119.124 7.58574C121.149 8.62146 122.765 10.0989 123.974 12.018C125.183 13.9371 125.787 16.2218 125.787 18.872C125.787 21.1872 125.439 23.1977 124.744 24.9036C124.08 26.579 123.188 27.965 122.07 29.0617C122.523 29.7623 122.886 30.5086 123.158 31.3006C123.43 32.0927 123.566 32.8542 123.566 33.5853C123.566 34.4383 123.339 35.1998 122.886 35.87C122.433 36.5097 121.844 37.0123 121.118 37.3779C120.423 37.7434 119.683 37.9262 118.897 37.9262C118.233 37.9262 117.613 37.8196 117.039 37.6063C116.465 37.3931 115.83 37.0275 115.135 36.5097C114.501 36.0223 113.942 35.3826 113.458 34.5906C112.975 33.7681 112.582 32.9608 112.28 32.1688C111.222 32.047 110.225 31.788 109.288 31.392C109.439 32.1231 109.515 32.8694 109.515 33.631C109.545 34.3926 109.424 35.1084 109.152 35.7786C108.91 36.4183 108.457 36.9514 107.792 37.3779C107.158 37.7739 106.251 37.9719 105.073 37.9719ZM112.869 24.9036C113.957 24.9036 114.894 24.5228 115.679 23.7612C116.495 22.9692 116.903 22.0553 116.903 21.0196C116.903 19.9534 116.495 19.0396 115.679 18.278C114.894 17.486 113.957 17.09 112.869 17.09C111.781 17.09 110.829 17.486 110.013 18.278C109.228 19.0396 108.835 19.9534 108.835 21.0196C108.835 22.0553 109.228 22.9692 110.013 23.7612C110.829 24.5228 111.781 24.9036 112.869 24.9036Z" fill="url(#paint3_linear_56_13)"/>
<path d="M142.633 37.9719C140.548 38.0023 138.584 37.6216 136.741 36.8295C134.898 36.0375 133.266 34.9104 131.846 33.4482C130.426 31.986 129.308 30.2801 128.492 28.3306C127.676 26.381 127.238 24.2638 127.177 21.9792C127.147 19.7859 127.525 17.7297 128.31 15.8106C129.096 13.8914 130.199 12.2008 131.619 10.7386C133.039 9.27641 134.686 8.13407 136.56 7.31158C138.433 6.45864 140.458 6.03217 142.633 6.03217C144.718 6.0017 146.683 6.38248 148.526 7.1745C150.369 7.96652 152.001 9.09364 153.421 10.5558C154.841 11.9876 155.959 13.6782 156.775 15.6278C157.621 17.5774 158.06 19.6945 158.09 21.9792C158.15 24.1725 157.865 26.0046 157.05 27.9238C156.264 29.8429 155.161 31.5336 153.741 32.9957C152.321 34.4275 150.566 35.7938 148.662 36.6468C146.788 37.4693 144.779 37.911 142.633 37.9719ZM142.769 29.0617C144.099 29.0617 145.262 28.5743 146.26 27.5995C147.287 26.6247 147.786 25.2996 147.755 23.6241C147.755 21.9182 147.257 20.5779 146.26 19.6031C145.262 18.6283 144.099 18.1409 142.769 18.1409C141.44 18.1409 140.277 18.6283 139.279 19.6031C138.282 20.5779 137.784 21.9182 137.784 23.6241C137.784 25.2996 138.282 26.6247 139.279 27.5995C140.277 28.5743 141.44 29.0617 142.769 29.0617Z" fill="url(#paint4_linear_56_13)"/>
<path d="M177.031 37.9262C175.974 37.9262 175.097 37.652 174.402 37.1037C173.738 36.5249 173.284 35.8091 173.043 34.9561C172.801 34.1032 172.65 33.1588 172.589 32.1231C172.529 31.0569 172.499 29.9908 172.499 28.9246C172.529 27.8279 172.529 26.8227 172.499 25.9088C172.468 24.9949 172.378 24.2638 172.227 23.7155C172.076 23.1672 171.788 22.893 171.365 22.893C170.761 22.893 170.338 23.152 170.096 23.6698C169.855 24.1572 169.734 24.8274 169.734 25.6803C169.734 26.5028 169.779 27.4015 169.87 28.3763C169.991 29.351 170.111 30.3258 170.232 31.3006C170.353 32.245 170.414 33.0827 170.414 33.8138C170.414 35.3369 170.066 36.3878 169.371 36.9666C168.706 37.5454 167.785 37.8348 166.606 37.8348C165.428 37.8348 164.385 37.3474 163.479 36.3726C162.602 35.3674 161.862 34.0879 161.258 32.5344C160.684 30.9503 160.245 29.2444 159.943 27.4167C159.641 25.589 159.49 23.8526 159.49 22.2076C159.49 20.1971 159.701 18.2476 160.124 16.3589C160.578 14.4702 161.243 12.7796 162.119 11.2869C163.025 9.79427 164.143 8.60623 165.473 7.72283C166.803 6.83942 168.374 6.39771 170.187 6.39771C171.607 6.39771 172.786 6.71757 173.722 7.35728C174.659 7.96652 175.399 8.74332 175.943 9.68765C176.518 10.632 176.91 11.5915 177.122 12.5663C177.333 11.5915 177.711 10.632 178.255 9.68765C178.799 8.74332 179.539 7.96652 180.476 7.35728C181.413 6.71757 182.576 6.39771 183.966 6.39771C186.263 6.39771 188.212 7.11358 189.813 8.54531C191.445 9.97704 192.684 11.9571 193.53 14.4855C194.376 16.9834 194.799 19.8925 194.799 23.2129C194.799 24.7665 194.633 26.4114 194.301 28.1478C193.968 29.8537 193.485 31.4529 192.85 32.9456C192.246 34.4078 191.505 35.611 190.629 36.5554C189.753 37.4692 188.756 37.9262 187.638 37.9262C186.429 37.9262 185.477 37.6216 184.782 37.0123C184.087 36.4031 183.74 35.3369 183.74 33.8138C183.74 33.0827 183.8 32.245 183.921 31.3006C184.042 30.3258 184.163 29.351 184.283 28.3763C184.404 27.4015 184.465 26.5028 184.465 25.6803C184.465 24.8274 184.344 24.1572 184.102 23.6698C183.891 23.152 183.483 22.893 182.878 22.893C182.455 22.893 182.153 23.1672 181.972 23.7155C181.821 24.2638 181.715 24.9949 181.654 25.9088C181.624 26.7922 181.609 27.7822 181.609 28.8789C181.609 29.9451 181.579 31.0112 181.519 32.0774C181.488 33.1436 181.352 34.1032 181.111 34.9561C180.899 35.8091 180.446 36.5249 179.751 37.1037C179.056 37.652 178.149 37.9262 177.031 37.9262Z" fill="url(#paint5_linear_56_13)"/>
<path d="M203.256 38.0176C201.171 38.0176 199.524 36.9971 198.315 34.9561C197.137 32.9151 196.442 30.2345 196.23 26.9141C195.988 22.8017 196.427 19.1767 197.545 16.039C198.693 12.871 200.415 10.4035 202.712 8.63669C205.008 6.86988 207.743 5.98647 210.916 5.98647C214.119 5.98647 216.854 6.86988 219.12 8.63669C221.416 10.4035 223.124 12.8557 224.242 15.9933C225.39 19.131 225.828 22.7712 225.556 26.9141C225.345 30.3258 224.635 33.0218 223.426 35.0018C222.247 36.9819 220.616 37.9719 218.531 37.9719C217.352 37.9719 216.446 37.7586 215.811 37.3322C215.177 36.8752 214.723 36.3117 214.451 35.6415C214.21 34.9409 214.089 34.2402 214.089 33.5396C214.089 32.8085 214.134 32.184 214.225 31.6662C213.258 31.6966 212.125 31.7271 210.825 31.7576C209.526 31.7576 208.438 31.7271 207.562 31.6662C207.652 32.184 207.698 32.8085 207.698 33.5396C207.698 34.2402 207.562 34.9409 207.29 35.6415C207.048 36.3117 206.61 36.8752 205.975 37.3322C205.341 37.7891 204.434 38.0176 203.256 38.0176ZM207.244 23.5328C209.632 23.4414 212.019 23.4414 214.406 23.5328C214.557 22.4666 214.542 21.4461 214.361 20.4713C214.179 19.4965 213.802 18.7045 213.227 18.0952C212.653 17.486 211.837 17.1814 210.78 17.1814C209.722 17.1814 208.906 17.486 208.332 18.0952C207.788 18.7045 207.426 19.4965 207.244 20.4713C207.093 21.4156 207.093 22.4361 207.244 23.5328Z" fill="url(#paint6_linear_56_13)"/>
<path d="M233.6 37.9262C232.663 37.9262 231.832 37.5454 231.107 36.7839C230.412 36.0223 229.822 35.017 229.339 33.7681C228.886 32.5191 228.508 31.1483 228.206 29.6557C227.934 28.163 227.737 26.6704 227.616 25.1777C227.496 23.6546 227.435 22.2838 227.435 21.0653C227.435 19.5117 227.556 17.8668 227.798 16.1304C228.039 14.3941 228.463 12.7643 229.067 11.2412C229.671 9.68765 230.502 8.42346 231.56 7.44866C232.617 6.47387 233.977 5.98647 235.639 5.98647C236.787 5.98647 237.785 6.36725 238.631 7.12881C239.507 7.8599 240.293 8.89563 240.988 10.236C241.683 11.5459 242.348 13.0537 242.982 14.7596C243.617 16.4655 244.297 18.278 245.022 20.1971C244.901 17.5774 244.976 15.2013 245.248 13.069C245.551 10.9061 246.155 9.18502 247.061 7.9056C247.968 6.62618 249.252 5.98647 250.914 5.98647C252.334 5.98647 253.468 6.47387 254.314 7.44866C255.19 8.42346 255.855 9.68765 256.308 11.2412C256.761 12.7643 257.063 14.3941 257.215 16.1304C257.396 17.8668 257.486 19.5117 257.486 21.0653C257.486 22.3143 257.396 23.6851 257.215 25.1777C257.033 26.6704 256.731 28.163 256.308 29.6557C255.885 31.1483 255.311 32.5191 254.586 33.7681C253.86 35.017 252.969 36.0223 251.911 36.7839C250.884 37.5454 249.645 37.9262 248.195 37.9262C246.895 37.9262 245.777 37.5149 244.84 36.6925C243.934 35.8395 243.118 34.7276 242.393 33.3568C241.698 31.9556 241.048 30.4172 240.444 28.7418C239.839 27.0664 239.205 25.391 238.54 23.7155C238.57 25.8174 238.57 27.7518 238.54 29.5186C238.51 31.2549 238.344 32.7476 238.042 33.9965C237.77 35.2455 237.286 36.2203 236.591 36.9209C235.896 37.5911 234.899 37.9262 233.6 37.9262Z" fill="url(#paint7_linear_56_13)"/>
<path d="M268.177 37.7891C267.119 37.7891 266.046 37.7739 264.959 37.7434C263.871 37.6825 262.874 37.5302 261.967 37.2865C261.061 37.0428 260.32 36.6315 259.746 36.0528C259.202 35.474 258.93 34.6667 258.93 33.631C258.93 32.2907 259.383 31.3463 260.29 30.798C261.197 30.2192 262.299 29.8384 263.599 29.6557C263.508 28.5895 263.448 27.4319 263.418 26.183C263.387 24.9036 263.372 23.5327 263.372 22.0706C263.372 20.7302 263.387 19.466 263.418 18.278C263.448 17.0595 263.493 15.9477 263.553 14.9424C262.012 14.7596 260.683 14.3636 259.565 13.7544C258.477 13.1451 257.933 12.0637 257.933 10.5101C257.933 9.35257 258.235 8.46915 258.84 7.8599C259.444 7.2202 260.245 6.77849 261.242 6.53479C262.269 6.26063 263.372 6.09309 264.551 6.03217C265.759 5.97124 266.953 5.94078 268.131 5.94078C269.31 5.94078 270.504 5.97124 271.712 6.03217C272.921 6.09309 274.024 6.26063 275.021 6.53479C276.018 6.77849 276.819 7.2202 277.423 7.8599C278.058 8.46915 278.375 9.35257 278.375 10.5101C278.375 11.5459 278.118 12.3683 277.605 12.9776C277.091 13.5868 276.396 14.0438 275.52 14.3484C274.643 14.6225 273.691 14.8205 272.664 14.9424C272.755 15.9477 272.815 17.0443 272.845 18.2323C272.876 19.4204 272.891 20.6998 272.891 22.0706C272.891 23.5327 272.861 24.9036 272.8 26.183C272.77 27.4319 272.709 28.5895 272.619 29.6557C273.979 29.808 275.127 30.1735 276.064 30.7523C277.031 31.3006 277.514 32.2602 277.514 33.631C277.514 34.6667 277.227 35.474 276.653 36.0528C276.109 36.6315 275.369 37.0428 274.432 37.2865C273.525 37.5302 272.528 37.6825 271.44 37.7434C270.352 37.7739 269.265 37.7891 268.177 37.7891Z" fill="url(#paint8_linear_56_13)"/>
<path d="M285.897 38.0176C283.811 38.0176 282.165 36.9971 280.956 34.9561C279.777 32.9151 279.082 30.2345 278.871 26.9141C278.629 22.8017 279.067 19.1767 280.185 16.039C281.334 12.871 283.056 10.4035 285.353 8.63669C287.649 6.86988 290.384 5.98647 293.557 5.98647C296.76 5.98647 299.494 6.86988 301.761 8.63669C304.057 10.4035 305.765 12.8557 306.883 15.9933C308.031 19.131 308.469 22.7712 308.197 26.9141C307.986 30.3258 307.275 33.0218 306.067 35.0018C304.888 36.9819 303.257 37.9719 301.171 37.9719C299.993 37.9719 299.087 37.7586 298.452 37.3322C297.817 36.8752 297.364 36.3117 297.092 35.6415C296.85 34.9409 296.729 34.2402 296.729 33.5396C296.729 32.8085 296.775 32.184 296.865 31.6662C295.899 31.6966 294.765 31.7271 293.466 31.7576C292.167 31.7576 291.079 31.7271 290.203 31.6662C290.293 32.184 290.339 32.8085 290.339 33.5396C290.339 34.2402 290.203 34.9409 289.931 35.6415C289.689 36.3117 289.251 36.8752 288.616 37.3322C287.982 37.7891 287.075 38.0176 285.897 38.0176ZM289.885 23.5328C292.272 23.4414 294.66 23.4414 297.047 23.5328C297.198 22.4666 297.183 21.4461 297.001 20.4713C296.82 19.4965 296.442 18.7045 295.868 18.0952C295.294 17.486 294.478 17.1814 293.421 17.1814C292.363 17.1814 291.547 17.486 290.973 18.0952C290.429 18.7045 290.067 19.4965 289.885 20.4713C289.734 21.4156 289.734 22.4361 289.885 23.5328Z" fill="url(#paint9_linear_56_13)"/>
<path d="M315.595 37.9262C314.326 37.9262 313.344 37.5606 312.649 36.8295C311.954 36.068 311.455 35.078 311.153 33.8595C310.851 32.6105 310.67 31.2397 310.609 29.7471C310.549 28.2544 310.519 26.7618 310.519 25.2691C310.519 24.538 310.519 23.5937 310.519 22.4361C310.549 21.2481 310.564 20.0448 310.564 18.8263C310.594 17.5774 310.624 16.4807 310.655 15.5364C310.685 14.5616 310.715 13.8914 310.745 13.5259C310.806 11.3326 311.259 9.5201 312.105 8.08837C312.951 6.65664 314.205 5.94078 315.867 5.94078C317.771 5.94078 319.07 6.77849 319.765 8.45392C320.49 10.0989 320.853 12.475 320.853 15.5821C320.853 15.9172 320.853 16.3741 320.853 16.9529C321.427 15.8867 322.122 14.7292 322.938 13.4802C323.784 12.2313 324.706 11.0432 325.703 9.91612C326.7 8.78901 327.758 7.87514 328.876 7.1745C329.994 6.44341 331.127 6.07786 332.275 6.07786C333.695 6.07786 334.859 6.62618 335.765 7.72283C336.702 8.789 337.171 10.1141 337.171 11.6982C337.171 13.1299 336.747 14.5312 335.901 15.902C335.085 17.2423 333.952 18.4608 332.502 19.5574C331.051 20.6541 329.359 21.5527 327.425 22.2533C328.543 22.7712 329.677 23.3957 330.825 24.1268C331.973 24.8274 333.016 25.6194 333.952 26.5028C334.919 27.3558 335.69 28.2849 336.264 29.2901C336.838 30.2954 337.125 31.3768 337.125 32.5344C337.125 33.8138 336.868 34.8495 336.355 35.6415C335.871 36.4335 335.237 37.0123 334.451 37.3779C333.665 37.7434 332.834 37.9262 331.958 37.9262C330.417 37.9262 328.982 37.4236 327.652 36.4183C326.322 35.413 325.083 34.1032 323.935 32.4887C322.817 30.8742 321.775 29.1835 320.808 27.4167C320.808 28.757 320.747 30.0517 320.626 31.3006C320.536 32.5496 320.324 33.6767 319.992 34.682C319.659 35.6872 319.146 36.4792 318.451 37.058C317.756 37.6368 316.804 37.9262 315.595 37.9262Z" fill="url(#paint10_linear_56_13)"/>
<path d="M6.95624 38.017C2.31076 34.2868 11.8062 23.4865 11.8062 23.4865C11.8062 23.4865 -1.33981 20.9279 0.111965 15.5815C1.58882 10.1428 14.4351 15.5815 14.4351 15.5815C14.4351 15.5815 13.1982 0.0338732 19.557 5.50445e-05C25.9269 -0.0338228 24.7695 15.5815 24.7695 15.5815C24.7695 15.5815 37.4786 10.1929 39.0019 15.5815C40.5089 20.9123 27.3078 23.4865 27.3078 23.4865C27.3078 23.4865 36.869 34.2373 32.2483 38.017C27.4946 41.9055 19.557 28.7412 19.557 28.7412C19.557 28.7412 11.7223 41.844 6.95624 38.017Z" fill="url(#paint11_linear_56_13)"/>
<path d="M249.295 11.9491C249.295 11.9491 250.404 11.7738 250.752 11.4233C251.099 11.0728 251.075 10.1541 251.075 10.1541C251.075 10.1541 251.213 11.0728 251.561 11.4233C251.909 11.7738 252.856 11.9491 252.856 11.9491C252.856 11.9491 251.909 12.0847 251.561 12.4352C251.213 12.7857 251.075 13.7441 251.075 13.7441C251.075 13.7441 251.099 12.7857 250.752 12.4352C250.404 12.0847 249.295 11.9491 249.295 11.9491Z" fill="#E7E9FA"/>
<path d="M251.813 15.7569C251.813 15.7569 252.922 15.5816 253.27 15.2311C253.618 14.8806 253.593 13.9619 253.593 13.9619C253.593 13.9619 253.732 14.8806 254.079 15.2311C254.427 15.5816 255.374 15.7569 255.374 15.7569C255.374 15.7569 254.427 15.8925 254.079 16.243C253.732 16.5935 253.593 17.5519 253.593 17.5519C253.593 17.5519 253.618 16.5935 253.27 16.243C252.922 15.8925 251.813 15.7569 251.813 15.7569Z" fill="#E7E9FA"/>
<path d="M248.036 33.5265C248.036 33.5265 249.145 33.3512 249.493 33.0007C249.84 32.6502 249.816 31.7315 249.816 31.7315C249.816 31.7315 249.954 32.6502 250.302 33.0007C250.65 33.3512 251.597 33.5265 251.597 33.5265C251.597 33.5265 250.65 33.6622 250.302 34.0127C249.954 34.3632 249.816 35.3215 249.816 35.3215C249.816 35.3215 249.84 34.3632 249.493 34.0127C249.145 33.6622 248.036 33.5265 248.036 33.5265Z" fill="#E7E9FA"/>
<path d="M229.15 29.7187C229.15 29.7187 230.259 29.5434 230.607 29.1929C230.954 28.8424 230.93 27.9237 230.93 27.9237C230.93 27.9237 231.068 28.8424 231.416 29.1929C231.764 29.5434 232.711 29.7187 232.711 29.7187C232.711 29.7187 231.764 29.8544 231.416 30.2049C231.068 30.5554 230.93 31.5138 230.93 31.5138C230.93 31.5138 230.954 30.5554 230.607 30.2049C230.259 29.8544 229.15 29.7187 229.15 29.7187Z" fill="#E7E9FA"/>
<path d="M260.626 34.7958C260.626 34.7958 261.736 34.6205 262.083 34.27C262.431 33.9195 262.407 33.0008 262.407 33.0008C262.407 33.0008 262.545 33.9195 262.893 34.27C263.24 34.6205 264.188 34.7958 264.188 34.7958C264.188 34.7958 263.24 34.9314 262.893 35.2819C262.545 35.6324 262.407 36.5908 262.407 36.5908C262.407 36.5908 262.431 35.6324 262.083 35.2819C261.736 34.9314 260.626 34.7958 260.626 34.7958Z" fill="#E7E9FA"/>
<path d="M312.248 10.6798C312.248 10.6798 313.357 10.5045 313.705 10.154C314.053 9.80351 314.029 8.8848 314.029 8.8848C314.029 8.8848 314.167 9.80351 314.514 10.154C314.862 10.5045 315.809 10.6798 315.809 10.6798C315.809 10.6798 314.862 10.8154 314.514 11.1659C314.167 11.5164 314.029 12.4748 314.029 12.4748C314.029 12.4748 314.053 11.5164 313.705 11.1659C313.357 10.8154 312.248 10.6798 312.248 10.6798Z" fill="#E7E9FA"/>
<path d="M314.766 14.4876C314.766 14.4876 315.875 14.3123 316.223 13.9618C316.571 13.6113 316.547 12.6926 316.547 12.6926C316.547 12.6926 316.685 13.6113 317.032 13.9618C317.38 14.3123 318.327 14.4876 318.327 14.4876C318.327 14.4876 317.38 14.6232 317.032 14.9737C316.685 15.3242 316.547 16.2826 316.547 16.2826C316.547 16.2826 316.571 15.3242 316.223 14.9737C315.875 14.6232 314.766 14.4876 314.766 14.4876Z" fill="#E7E9FA"/>
<path d="M331.134 9.41055C331.134 9.41055 332.243 9.23524 332.591 8.88474C332.939 8.53425 332.914 7.61554 332.914 7.61554C332.914 7.61554 333.053 8.53425 333.4 8.88474C333.748 9.23524 334.695 9.41055 334.695 9.41055C334.695 9.41055 333.748 9.54619 333.4 9.89668C333.053 10.2472 332.914 11.2056 332.914 11.2056C332.914 11.2056 332.939 10.2472 332.591 9.89668C332.243 9.54619 331.134 9.41055 331.134 9.41055Z" fill="#E7E9FA"/>
<path d="M285.808 11.9491C285.808 11.9491 286.917 11.7738 287.265 11.4233C287.612 11.0728 287.588 10.1541 287.588 10.1541C287.588 10.1541 287.726 11.0728 288.074 11.4233C288.422 11.7738 289.369 11.9491 289.369 11.9491C289.369 11.9491 288.422 12.0847 288.074 12.4352C287.726 12.7857 287.588 13.7441 287.588 13.7441C287.588 13.7441 287.612 12.7857 287.265 12.4352C286.917 12.0847 285.808 11.9491 285.808 11.9491Z" fill="#E7E9FA"/>
<path d="M271.958 9.41055C271.958 9.41055 273.067 9.23524 273.415 8.88474C273.763 8.53425 273.738 7.61554 273.738 7.61554C273.738 7.61554 273.877 8.53425 274.224 8.88474C274.572 9.23524 275.519 9.41055 275.519 9.41055C275.519 9.41055 274.572 9.54619 274.224 9.89668C273.877 10.2472 273.738 11.2056 273.738 11.2056C273.738 11.2056 273.763 10.2472 273.415 9.89668C273.067 9.54619 271.958 9.41055 271.958 9.41055Z" fill="#E7E9FA"/>
<path d="M356.315 5.60276C356.315 5.60276 357.425 5.42745 357.772 5.07696C358.12 4.72646 358.096 3.80775 358.096 3.80775C358.096 3.80775 358.234 4.72646 358.582 5.07696C358.929 5.42745 359.876 5.60276 359.876 5.60276C359.876 5.60276 358.929 5.7384 358.582 6.0889C358.234 6.43939 358.096 7.39777 358.096 7.39777C358.096 7.39777 358.12 6.43939 357.772 6.0889C357.425 5.7384 356.315 5.60276 356.315 5.60276Z" fill="#E7E9FA"/>
<path d="M357.574 9.41039C357.574 9.41039 358.684 9.23509 359.031 8.88459C359.379 8.53409 359.355 7.61538 359.355 7.61538C359.355 7.61538 359.493 8.53409 359.841 8.88459C360.188 9.23509 361.135 9.41039 361.135 9.41039C361.135 9.41039 360.188 9.54603 359.841 9.89653C359.493 10.247 359.355 11.2054 359.355 11.2054C359.355 11.2054 359.379 10.247 359.031 9.89653C358.684 9.54603 357.574 9.41039 357.574 9.41039Z" fill="#E7E9FA"/>
<path d="M300.916 32.2573C300.916 32.2573 302.026 32.082 302.373 31.7315C302.721 31.381 302.697 30.4623 302.697 30.4623C302.697 30.4623 302.835 31.381 303.183 31.7315C303.53 32.082 304.478 32.2573 304.478 32.2573C304.478 32.2573 303.53 32.3929 303.183 32.7434C302.835 33.0939 302.697 34.0523 302.697 34.0523C302.697 34.0523 302.721 33.0939 302.373 32.7434C302.026 32.3929 300.916 32.2573 300.916 32.2573Z" fill="#E7E9FA"/>
<path d="M282.03 14.4876C282.03 14.4876 283.14 14.3123 283.487 13.9618C283.835 13.6113 283.811 12.6926 283.811 12.6926C283.811 12.6926 283.949 13.6113 284.297 13.9618C284.644 14.3123 285.592 14.4876 285.592 14.4876C285.592 14.4876 284.644 14.6232 284.297 14.9737C283.949 15.3242 283.811 16.2826 283.811 16.2826C283.811 16.2826 283.835 15.3242 283.487 14.9737C283.14 14.6232 282.03 14.4876 282.03 14.4876Z" fill="#E7E9FA"/>
<path d="M7.44194 57.105C6.20839 57.1186 5.06296 56.8128 4.00563 56.1876C2.96186 55.5623 2.12143 54.7061 1.48432 53.6188C0.860771 52.5178 0.53544 51.3014 0.508329 49.9694C0.494774 48.6918 0.792993 47.5093 1.40299 46.422C2.01298 45.3347 2.85342 44.4716 3.9243 43.8328C4.99518 43.1804 6.16773 42.8542 7.44194 42.8542C8.68904 42.8406 9.84125 43.1532 10.8986 43.792C11.9695 44.4309 12.8167 45.3075 13.4402 46.422C14.0638 47.5365 14.3755 48.7666 14.3755 50.1121C14.3755 51.3761 14.0638 52.5382 13.4402 53.5984C12.8167 54.6585 11.9695 55.5012 10.8986 56.1264C9.84125 56.7516 8.68904 57.0778 7.44194 57.105ZM7.50294 53.1295C8.12649 53.1295 8.65515 52.9052 9.08892 52.4567C9.53625 52.0082 9.75314 51.4237 9.73958 50.7034C9.73958 49.9694 9.5227 49.3782 9.08892 48.9297C8.65515 48.4811 8.12649 48.2569 7.50294 48.2569C6.87939 48.2569 6.35072 48.4811 5.91695 48.9297C5.48318 49.3782 5.26629 49.9694 5.26629 50.7034C5.26629 51.4237 5.48318 52.0082 5.91695 52.4567C6.35072 52.9052 6.87939 53.1295 7.50294 53.1295Z" fill="#3F466A"/>
<path d="M17.7798 57.0438C17.102 57.0438 16.5937 56.7924 16.2548 56.2895C15.9159 55.7866 15.6854 55.0459 15.5634 54.0673C15.455 53.0751 15.4008 51.6955 15.4008 49.9286C15.4008 48.2297 15.4414 46.9045 15.5228 45.9531C15.6177 45.0017 15.8346 44.2406 16.1734 43.6697C16.5259 43.0989 17.0681 42.8135 17.8001 42.8135C18.5321 42.8135 19.0675 43.0989 19.4064 43.6697C19.7589 44.2406 19.9757 45.0017 20.0571 45.9531C20.152 46.9045 20.1994 48.2297 20.1994 49.9286C20.1994 51.6004 20.1249 52.9528 19.9757 53.9857C19.8402 55.0051 19.5962 55.773 19.2437 56.2895C18.8913 56.7924 18.4033 57.0438 17.7798 57.0438Z" fill="#3F466A"/>
<path d="M24.8787 57.0846C23.8214 57.0846 22.9539 56.8468 22.2761 56.371C21.5983 55.8817 21.2594 55.1818 21.2594 54.2711C21.2594 53.4828 21.6051 52.8576 22.2964 52.3955C22.9878 51.9334 23.8485 51.7023 24.8787 51.7023C25.2583 51.7023 25.6107 51.7363 25.9361 51.8043C26.2749 51.8586 26.5054 51.9266 26.6274 52.0082C26.6274 51.6684 26.4851 51.3897 26.2004 51.1723C25.9157 50.9412 25.482 50.8257 24.8991 50.8257C24.6415 50.8257 24.4314 50.8461 24.2687 50.8868C24.1061 50.9276 23.9299 50.9888 23.7401 51.0703C23.5503 51.1519 23.3741 51.213 23.2114 51.2538C23.0623 51.2946 22.859 51.315 22.6014 51.315C22.1676 51.315 21.8288 51.2062 21.5848 50.9888C21.3408 50.7577 21.2188 50.4111 21.2188 49.949C21.2188 49.419 21.4085 48.9704 21.7881 48.6035C22.1812 48.2365 22.6692 47.9647 23.2521 47.788C23.835 47.5977 24.4178 47.5025 25.0007 47.5025C26.1529 47.5025 27.1154 47.72 27.888 48.1549C28.6743 48.5763 29.2504 49.1403 29.6164 49.8471C29.9959 50.5539 30.1857 51.3354 30.1857 52.1916C30.1857 52.6538 30.145 53.0819 30.0637 53.476C29.9959 53.8702 29.901 54.176 29.779 54.3935C29.9688 54.5566 30.1111 54.7469 30.206 54.9643C30.3145 55.1818 30.3687 55.406 30.3687 55.6371C30.3687 56.0313 30.2331 56.371 29.962 56.6565C29.7045 56.9419 29.3588 57.0846 28.925 57.0846C28.5997 57.0846 28.3354 57.037 28.132 56.9419C27.9287 56.8468 27.7118 56.6972 27.4814 56.4934C27.1425 56.6972 26.7697 56.8468 26.3631 56.9419C25.9699 57.037 25.4752 57.0846 24.8787 57.0846ZM25.2854 55.0255C25.5701 55.0255 25.7937 54.9643 25.9564 54.842C26.1326 54.7197 26.2207 54.5702 26.2207 54.3935C26.2207 54.2168 26.1326 54.0673 25.9564 53.945C25.7937 53.8226 25.5701 53.7615 25.2854 53.7615C25.0007 53.7615 24.7703 53.8226 24.5941 53.945C24.4314 54.0673 24.3501 54.2168 24.3501 54.3935C24.3501 54.5702 24.4314 54.7197 24.5941 54.842C24.7703 54.9643 25.0007 55.0255 25.2854 55.0255ZM24.9804 47.0132C24.6957 47.0132 24.4585 46.9181 24.2687 46.7278C24.079 46.524 23.9841 46.2997 23.9841 46.055C23.9841 45.8104 24.1196 45.4978 24.3907 45.1172C24.6754 44.7231 25.0007 44.3833 25.3667 44.0979C25.7463 43.7988 26.0648 43.6493 26.3224 43.6493C26.7155 43.6493 27.0273 43.7852 27.2577 44.0571C27.4882 44.3153 27.5966 44.5939 27.583 44.893C27.583 45.1376 27.4204 45.4298 27.0951 45.7696C26.7697 46.0958 26.3969 46.388 25.9767 46.6463C25.5701 46.8909 25.238 47.0132 24.9804 47.0132Z" fill="#3F466A"/>
<path d="M35.696 55.8002C35.696 56.4798 35.5401 57.0914 35.2283 57.6351C34.9301 58.1923 34.5641 58.6272 34.1303 58.9399C33.7101 59.2525 33.3306 59.4088 32.9917 59.4088C32.707 59.4088 32.4766 59.3272 32.3003 59.1641C32.1377 59.001 32.0563 58.7971 32.0563 58.5525C32.0563 58.3758 32.0902 58.2263 32.158 58.104C32.2393 57.9816 32.3681 57.8253 32.5443 57.6351C32.6528 57.5263 32.7544 57.404 32.8493 57.2681C32.9442 57.1322 33.012 56.9963 33.0527 56.8603C32.6053 56.738 32.2664 56.5274 32.036 56.2283C31.8056 55.9157 31.6903 55.5623 31.6903 55.1682C31.6903 54.6653 31.8666 54.2168 32.219 53.8226C32.585 53.4285 33.0391 53.2314 33.5813 53.2314C34.2184 53.2314 34.7268 53.4489 35.1063 53.8838C35.4994 54.3051 35.696 54.9439 35.696 55.8002Z" fill="#3F466A"/>
<path d="M46.7806 57.0846C45.7232 57.0846 44.8557 56.8468 44.1779 56.371C43.5002 55.8817 43.1613 55.1818 43.1613 54.2711C43.1613 53.4828 43.5069 52.8576 44.1983 52.3955C44.8896 51.9334 45.7504 51.7023 46.7806 51.7023C47.1601 51.7023 47.5126 51.7363 47.8379 51.8043C48.1768 51.8586 48.4072 51.9266 48.5292 52.0082C48.5292 51.6684 48.3869 51.3897 48.1022 51.1723C47.8176 50.9412 47.3838 50.8257 46.8009 50.8257C46.5433 50.8257 46.3332 50.8461 46.1706 50.8868C46.0079 50.9276 45.8317 50.9888 45.6419 51.0703C45.4521 51.1519 45.2759 51.213 45.1132 51.2538C44.9641 51.2946 44.7608 51.315 44.5033 51.315C44.0695 51.315 43.7306 51.2062 43.4866 50.9888C43.2426 50.7577 43.1206 50.4111 43.1206 49.949C43.1206 49.419 43.3104 48.9704 43.6899 48.6035C44.083 48.2365 44.571 47.9647 45.1539 47.788C45.7368 47.5977 46.3197 47.5025 46.9026 47.5025C48.0548 47.5025 49.0172 47.72 49.7899 48.1549C50.5761 48.5763 51.1522 49.1403 51.5182 49.8471C51.8978 50.5539 52.0875 51.3354 52.0875 52.1916C52.0875 52.6538 52.0469 53.0819 51.9655 53.476C51.8977 53.8702 51.8029 54.176 51.6809 54.3935C51.8706 54.5566 52.013 54.7469 52.1079 54.9643C52.2163 55.1818 52.2705 55.406 52.2705 55.6371C52.2705 56.0313 52.135 56.371 51.8639 56.6565C51.6063 56.9419 51.2606 57.0846 50.8269 57.0846C50.5015 57.0846 50.2372 57.037 50.0339 56.9419C49.8305 56.8468 49.6137 56.6972 49.3832 56.4934C49.0443 56.6972 48.6716 56.8468 48.2649 56.9419C47.8718 57.037 47.377 57.0846 46.7806 57.0846ZM47.1872 55.0255C47.4719 55.0255 47.6956 54.9643 47.8582 54.842C48.0344 54.7197 48.1226 54.5702 48.1226 54.3935C48.1226 54.2168 48.0344 54.0673 47.8582 53.945C47.6956 53.8226 47.4719 53.7615 47.1872 53.7615C46.9026 53.7615 46.6721 53.8226 46.4959 53.945C46.3332 54.0673 46.2519 54.2168 46.2519 54.3935C46.2519 54.5702 46.3332 54.7197 46.4959 54.842C46.6721 54.9643 46.9026 55.0255 47.1872 55.0255Z" fill="#3F466A"/>
<path d="M57.7293 57.0846C56.7669 57.0846 55.9129 56.8535 55.1674 56.3914C54.4354 55.9157 53.8728 55.3041 53.4797 54.5566C53.0866 53.7954 52.89 52.9867 52.89 52.1305C52.89 51.1247 53.0934 50.2752 53.5 49.5821C53.9203 48.8753 54.4557 48.352 55.1064 48.0122C55.7706 47.6724 56.4822 47.5025 57.2413 47.5025C58.0004 47.5025 58.6782 47.6656 59.2747 47.9918C59.2475 47.7064 59.1933 47.4006 59.112 47.0744C59.0442 46.7482 58.9968 46.5443 58.9697 46.4628C58.8612 46.0415 58.7799 45.6881 58.7257 45.4026C58.6714 45.1172 58.6443 44.8318 58.6443 44.5464C58.6443 43.9755 58.8138 43.5406 59.1527 43.2416C59.4915 42.9426 59.8982 42.7931 60.3727 42.7931C61.1318 42.7931 61.7485 43.1736 62.223 43.9348C62.6974 44.6959 63.0363 45.6405 63.2396 46.7686C63.4565 47.8967 63.565 49.0384 63.565 50.1937C63.565 51.7567 63.2057 53.2994 62.4873 54.8216C61.7824 56.3303 60.1964 57.0846 57.7293 57.0846ZM57.8513 53.8634C58.2173 53.8634 58.5359 53.7275 58.807 53.4557C59.0781 53.1702 59.2137 52.8372 59.2137 52.4567C59.2137 52.0761 59.0781 51.7431 58.807 51.4577C58.5359 51.1723 58.2173 51.0296 57.8513 51.0296C57.4853 51.0296 57.16 51.1723 56.8754 51.4577C56.6042 51.7431 56.4687 52.0761 56.4687 52.4567C56.4687 52.8372 56.6042 53.1702 56.8754 53.4557C57.16 53.7275 57.4853 53.8634 57.8513 53.8634Z" fill="#3F466A"/>
<path d="M71.4379 57.0846C70.8143 57.0846 70.3873 56.8739 70.1569 56.4526C69.9264 56.0313 69.8112 55.3857 69.8112 54.5158C69.8112 53.877 69.8044 53.4217 69.7909 53.1498C69.7773 52.8644 69.7231 52.6266 69.6282 52.4363C69.5469 52.246 69.3978 52.1509 69.1809 52.1509C68.9233 52.1509 68.7336 52.2392 68.6115 52.4159C68.4896 52.579 68.415 52.7965 68.3879 53.0683C68.3743 53.3265 68.3676 53.7207 68.3676 54.2508C68.3676 54.9032 68.3404 55.4196 68.2862 55.8002C68.232 56.1672 68.0897 56.473 67.8592 56.7176C67.6288 56.9487 67.2696 57.0642 66.7816 57.0642C65.3176 57.0642 64.5856 55.2022 64.5856 51.4781C64.5856 50.2141 64.694 49.2355 64.9109 48.5423C65.1414 47.8355 65.5684 47.3938 66.1919 47.2171C66.4223 47.1492 66.6325 47.1152 66.8222 47.1152C67.1069 47.1152 67.3644 47.1763 67.5949 47.2987C67.8253 47.421 67.988 47.5909 68.0829 47.8084C68.2727 47.6996 68.4624 47.6181 68.6522 47.5637C68.842 47.5093 69.1131 47.4822 69.4655 47.4822C69.8993 47.4822 70.306 47.5909 70.6855 47.8084C71.0786 48.0122 71.3565 48.3044 71.5192 48.685C71.8716 48.2773 72.2241 47.9783 72.5765 47.788C72.9425 47.5841 73.4102 47.4822 73.9795 47.4822C74.8199 47.4822 75.5519 47.7336 76.1755 48.2365C76.8126 48.7258 77.3006 49.4054 77.6395 50.2752C77.9919 51.1315 78.1681 52.0829 78.1681 53.1295C78.1681 54.2983 78.0123 55.2497 77.7005 55.9837C77.3887 56.7176 76.8465 57.0846 76.0738 57.0846C75.5587 57.0846 75.1859 56.9555 74.9555 56.6972C74.7386 56.439 74.6031 56.1196 74.5488 55.739C74.5082 55.3449 74.4878 54.774 74.4878 54.0265C74.4878 53.3741 74.4404 52.8984 74.3455 52.5994C74.2506 52.3004 74.027 52.1509 73.6745 52.1509C73.417 52.1509 73.2543 52.2936 73.1865 52.579C73.1187 52.8508 73.0848 53.3061 73.0848 53.945C73.0713 54.0673 73.0645 54.2576 73.0645 54.5158C73.0374 55.3857 72.9086 56.0313 72.6782 56.4526C72.4477 56.8739 72.0343 57.0846 71.4379 57.0846Z" fill="#3F466A"/>
<path d="M81.162 47.1967C80.4978 47.1967 79.9353 46.9589 79.4744 46.4832C79.0135 45.9939 78.7831 45.4026 78.7831 44.7095C78.7831 44.0299 79.0135 43.4523 79.4744 42.9766C79.9353 42.4873 80.4978 42.2426 81.162 42.2426C81.8127 42.2426 82.3685 42.4873 82.8294 42.9766C83.3038 43.4523 83.541 44.0299 83.541 44.7095C83.541 45.4026 83.3038 45.9939 82.8294 46.4832C82.3685 46.9589 81.8127 47.1967 81.162 47.1967ZM81.162 57.0846C80.6063 57.0846 80.1928 56.9283 79.9217 56.6157C79.6642 56.2895 79.4879 55.807 79.3931 55.1682C79.3117 54.5158 79.2711 53.5916 79.2711 52.3955C79.2711 51.3897 79.3185 50.5946 79.4134 50.0102C79.5218 49.4258 79.7116 48.9908 79.9827 48.7054C80.2538 48.42 80.6469 48.2773 81.162 48.2773C81.7178 48.2773 82.1245 48.4404 82.382 48.7666C82.6531 49.0792 82.8294 49.5617 82.9107 50.2141C83.0056 50.8529 83.053 51.7703 83.053 52.9664C83.053 53.9721 82.9988 54.7672 82.8904 55.3517C82.7955 55.9361 82.6125 56.371 82.3414 56.6565C82.0703 56.9419 81.6771 57.0846 81.162 57.0846Z" fill="#3F466A"/>
<path d="M86.737 57.0846C85.8694 57.0846 85.2865 56.5749 84.9883 55.5556C84.7037 54.5362 84.5613 53.1295 84.5613 51.3354C84.5613 50.5199 84.5952 49.8403 84.663 49.2966C84.7443 48.7394 84.9273 48.2705 85.212 47.8899C85.5102 47.4958 85.9643 47.2987 86.5743 47.2987C86.9539 47.2987 87.286 47.387 87.5706 47.5637C87.8689 47.7404 88.0586 47.9918 88.14 48.318C88.4382 48.0462 88.8245 47.8423 89.299 47.7064C89.7734 47.5705 90.2817 47.5025 90.8239 47.5025C91.2577 47.5025 91.6983 47.6113 92.1456 47.8287C92.6065 48.0462 92.986 48.3452 93.2843 48.7258C93.596 49.0928 93.7519 49.4937 93.7519 49.9286C93.7519 50.3636 93.596 50.7509 93.2843 51.0907C92.986 51.4169 92.5862 51.58 92.0846 51.58C91.9219 51.58 91.7661 51.5596 91.6169 51.5189C91.4814 51.4781 91.3594 51.4373 91.2509 51.3965C90.9798 51.2878 90.7629 51.2334 90.6003 51.2334C90.0716 51.2334 89.604 51.4441 89.1973 51.8654C88.8042 52.2732 88.6076 52.8033 88.6076 53.4557C88.6076 54.176 88.5805 54.774 88.5263 55.2497C88.4721 55.7254 88.3094 56.1536 88.0383 56.5341C87.7672 56.9011 87.3334 57.0846 86.737 57.0846Z" fill="#3F466A"/>
<path d="M98.4276 57.0846C97.3703 57.0846 96.5027 56.8468 95.825 56.371C95.1472 55.8817 94.8083 55.1818 94.8083 54.2711C94.8083 53.4828 95.154 52.8576 95.8453 52.3955C96.5366 51.9334 97.3974 51.7023 98.4276 51.7023C98.8071 51.7023 99.1596 51.7363 99.4849 51.8043C99.8238 51.8586 100.054 51.9266 100.176 52.0082C100.176 51.6684 100.034 51.3897 99.7493 51.1723C99.4646 50.9412 99.0308 50.8257 98.4479 50.8257C98.1904 50.8257 97.9803 50.8461 97.8176 50.8868C97.6549 50.9276 97.4787 50.9888 97.2889 51.0703C97.0992 51.1519 96.9229 51.213 96.7603 51.2538C96.6112 51.2946 96.4078 51.315 96.1503 51.315C95.7165 51.315 95.3776 51.2062 95.1336 50.9888C94.8896 50.7577 94.7676 50.4111 94.7676 49.949C94.7676 49.419 94.9574 48.9704 95.337 48.6035C95.7301 48.2365 96.2181 47.9647 96.8009 47.788C97.3838 47.5977 97.9667 47.5025 98.5496 47.5025C99.7018 47.5025 100.664 47.72 101.437 48.1549C102.223 48.5763 102.799 49.1403 103.165 49.8471C103.545 50.5539 103.735 51.3354 103.735 52.1916C103.735 52.6538 103.694 53.0819 103.613 53.476C103.545 53.8702 103.45 54.176 103.328 54.3935C103.518 54.5566 103.66 54.7469 103.755 54.9643C103.863 55.1818 103.918 55.406 103.918 55.6371C103.918 56.0313 103.782 56.371 103.511 56.6565C103.253 56.9419 102.908 57.0846 102.474 57.0846C102.149 57.0846 101.884 57.037 101.681 56.9419C101.478 56.8468 101.261 56.6972 101.03 56.4934C100.691 56.6972 100.319 56.8468 99.9119 56.9419C99.5188 57.037 99.024 57.0846 98.4276 57.0846ZM98.8343 55.0255C99.1189 55.0255 99.3426 54.9643 99.5053 54.842C99.6815 54.7197 99.7696 54.5702 99.7696 54.3935C99.7696 54.2168 99.6815 54.0673 99.5053 53.945C99.3426 53.8226 99.1189 53.7615 98.8343 53.7615C98.5496 53.7615 98.3191 53.8226 98.1429 53.945C97.9803 54.0673 97.8989 54.2168 97.8989 54.3935C97.8989 54.5702 97.9803 54.7197 98.1429 54.842C98.3191 54.9643 98.5496 55.0255 98.8343 55.0255ZM98.5293 47.0132C98.2446 47.0132 98.0074 46.9181 97.8176 46.7278C97.6278 46.524 97.5329 46.2997 97.5329 46.055C97.5329 45.8104 97.6685 45.4978 97.9396 45.1172C98.2243 44.7231 98.5496 44.3833 98.9156 44.0979C99.2951 43.7988 99.6137 43.6493 99.8713 43.6493C100.264 43.6493 100.576 43.7852 100.807 44.0571C101.037 44.3153 101.145 44.5939 101.132 44.893C101.132 45.1376 100.969 45.4298 100.644 45.7696C100.319 46.0958 99.9458 46.388 99.5256 46.6463C99.1189 46.8909 98.7868 47.0132 98.5293 47.0132Z" fill="#3F466A"/>
<path d="M110.16 57.0642C109.834 57.0642 109.529 57.0234 109.245 56.9419C108.974 56.8603 108.655 56.6769 108.289 56.3914C107.869 56.0516 107.395 55.4808 106.866 54.6789C106.337 53.8634 105.883 52.9867 105.504 52.0489C105.124 51.0975 104.934 50.2412 104.934 49.4801C104.934 48.9093 105.097 48.4404 105.422 48.0734C105.761 47.6928 106.154 47.5025 106.602 47.5025C107.144 47.5025 107.605 47.7132 107.984 48.1346C108.377 48.5423 108.703 49.052 108.96 49.6636C109.231 50.2616 109.536 51.0703 109.875 52.0897C109.916 52.212 109.956 52.3479 109.997 52.4974C110.051 52.6334 110.106 52.7761 110.16 52.9256L110.363 52.3344C110.743 51.247 111.068 50.3908 111.339 49.7655C111.61 49.1267 111.949 48.5899 112.356 48.1549C112.762 47.7064 113.237 47.489 113.779 47.5025C114.213 47.5161 114.579 47.6792 114.877 47.9918C115.189 48.3044 115.345 48.7598 115.345 49.3578C115.345 50.1733 115.169 51.0296 114.816 51.9266C114.464 52.8236 114.05 53.6391 113.576 54.3731C113.101 55.0934 112.695 55.6235 112.356 55.9633C112.058 56.3031 111.705 56.5749 111.298 56.7788C110.905 56.9691 110.526 57.0642 110.16 57.0642Z" fill="#3F466A"/>
<path d="M120.82 57.0846C119.817 57.0846 118.929 56.8875 118.156 56.4934C117.384 56.0992 116.78 55.5488 116.347 54.842C115.926 54.1216 115.716 53.3129 115.716 52.4159C115.716 51.5324 115.926 50.717 116.347 49.9694C116.78 49.2219 117.377 48.6238 118.136 48.1753C118.895 47.7268 119.756 47.5025 120.718 47.5025C121.586 47.5025 122.352 47.6792 123.016 48.0326C123.68 48.386 124.188 48.8549 124.541 49.4393C124.893 50.0102 125.07 50.6082 125.07 51.2334C125.07 52.2528 124.683 53.0003 123.911 53.476C123.151 53.9382 122.243 54.1692 121.186 54.1692C120.481 54.1692 119.885 54.0809 119.397 53.9042C119.803 54.5702 120.474 54.9032 121.41 54.9032C121.789 54.9032 122.196 54.8556 122.63 54.7604C122.792 54.7197 122.948 54.6993 123.097 54.6993C123.396 54.6993 123.633 54.774 123.809 54.9235C123.999 55.0731 124.094 55.2769 124.094 55.5352C124.094 55.9565 123.836 56.3235 123.321 56.6361C122.806 56.9351 121.972 57.0846 120.82 57.0846ZM119.458 51.4169C119.58 51.6072 119.742 51.7499 119.946 51.8451C120.163 51.9266 120.4 51.9674 120.657 51.9674C120.956 51.9674 121.213 51.8994 121.43 51.7635C121.66 51.6276 121.776 51.4509 121.776 51.2334C121.776 50.9888 121.674 50.7781 121.471 50.6014C121.281 50.4247 121.003 50.3364 120.637 50.3364C120.271 50.3364 119.98 50.4519 119.763 50.683C119.559 50.9004 119.458 51.1451 119.458 51.4169Z" fill="#3F466A"/>
<path d="M128.46 57.0438C127.783 57.0438 127.274 56.7924 126.935 56.2895C126.597 55.7866 126.366 55.0459 126.244 54.0673C126.136 53.0751 126.081 51.6955 126.081 49.9286C126.081 48.2297 126.122 46.9045 126.203 45.9531C126.298 45.0017 126.515 44.2406 126.854 43.6697C127.207 43.0989 127.749 42.8135 128.481 42.8135C129.213 42.8135 129.748 43.0989 130.087 43.6697C130.44 44.2406 130.656 45.0017 130.738 45.9531C130.833 46.9045 130.88 48.2297 130.88 49.9286C130.88 51.6004 130.806 52.9528 130.656 53.9857C130.521 55.0051 130.277 55.773 129.924 56.2895C129.572 56.7924 129.084 57.0438 128.46 57.0438Z" fill="#3F466A"/>
<path d="M140.069 60C139.405 60 138.924 59.6602 138.626 58.9806C138.328 58.3146 138.145 57.5535 138.077 56.6972C138.023 55.841 137.995 54.7129 137.995 53.3129C137.995 52.2392 138.036 51.2946 138.117 50.4791C138.212 49.6636 138.422 48.9568 138.748 48.3588C139.073 47.7608 139.568 47.4618 140.232 47.4618C140.923 47.4618 141.425 47.7336 141.737 48.2773C142.049 48.0462 142.435 47.8627 142.896 47.7268C143.37 47.5773 143.865 47.5025 144.38 47.5025C145.248 47.5025 146.047 47.72 146.779 48.1549C147.511 48.5899 148.094 49.1743 148.528 49.9083C148.962 50.6422 149.179 51.4441 149.179 52.314C149.179 53.1838 148.962 53.9925 148.528 54.7401C148.094 55.474 147.511 56.0584 146.779 56.4934C146.047 56.9283 145.248 57.1458 144.38 57.1458C143.851 57.1458 143.357 57.0778 142.896 56.9419C142.435 56.7924 142.042 56.5953 141.716 56.3507C141.716 57.2205 141.689 57.8933 141.635 58.369C141.581 58.8447 141.432 59.2321 141.188 59.5311C140.957 59.8437 140.585 60 140.069 60ZM144.278 53.7615C144.631 53.7615 144.936 53.6323 145.193 53.3741C145.464 53.1023 145.6 52.7897 145.6 52.4363C145.6 52.0829 145.464 51.7771 145.193 51.5189C144.936 51.247 144.631 51.1111 144.278 51.1111C143.926 51.1111 143.614 51.247 143.343 51.5189C143.086 51.7771 142.957 52.0829 142.957 52.4363C142.957 52.7897 143.086 53.1023 143.343 53.3741C143.614 53.6323 143.926 53.7615 144.278 53.7615Z" fill="#3F466A"/>
<path d="M154.874 57.105C153.898 57.1186 153.023 56.9147 152.251 56.4934C151.491 56.072 150.895 55.4944 150.461 54.7604C150.041 54.0129 149.817 53.1838 149.79 52.2732C149.777 51.3626 149.987 50.5471 150.421 49.8267C150.854 49.1064 151.458 48.5355 152.23 48.1142C153.016 47.6928 153.898 47.4822 154.874 47.4822C155.822 47.4822 156.676 47.686 157.436 48.0938C158.208 48.5015 158.818 49.0724 159.266 49.8063C159.713 50.5403 159.95 51.3626 159.977 52.2732C159.991 53.1566 159.781 53.9653 159.347 54.6993C158.913 55.4196 158.303 55.9973 157.517 56.4322C156.744 56.8671 155.863 57.0914 154.874 57.105ZM154.935 54.1284C155.301 54.1284 155.619 53.9857 155.89 53.7003C156.161 53.4149 156.297 53.0819 156.297 52.7013C156.297 52.3208 156.161 51.9946 155.89 51.7227C155.619 51.4373 155.301 51.2946 154.935 51.2946C154.569 51.2946 154.25 51.4373 153.979 51.7227C153.708 51.9946 153.572 52.3208 153.572 52.7013C153.572 53.0819 153.708 53.4149 153.979 53.7003C154.25 53.9857 154.569 54.1284 154.935 54.1284Z" fill="#3F466A"/>
<path d="M165.696 57.0846C164.693 57.0846 163.805 56.8875 163.032 56.4934C162.26 56.0992 161.656 55.5488 161.223 54.842C160.802 54.1216 160.592 53.3129 160.592 52.4159C160.592 51.5324 160.802 50.717 161.223 49.9694C161.656 49.2219 162.253 48.6238 163.012 48.1753C163.771 47.7268 164.632 47.5025 165.594 47.5025C166.462 47.5025 167.228 47.6792 167.892 48.0326C168.556 48.386 169.064 48.8549 169.417 49.4393C169.769 50.0102 169.946 50.6082 169.946 51.2334C169.946 52.2528 169.559 53.0003 168.787 53.476C168.027 53.9382 167.119 54.1692 166.062 54.1692C165.357 54.1692 164.761 54.0809 164.273 53.9042C164.679 54.5702 165.35 54.9032 166.286 54.9032C166.665 54.9032 167.072 54.8556 167.506 54.7604C167.668 54.7197 167.824 54.6993 167.973 54.6993C168.271 54.6993 168.509 54.774 168.685 54.9235C168.875 55.0731 168.97 55.2769 168.97 55.5352C168.97 55.9565 168.712 56.3235 168.197 56.6361C167.682 56.9351 166.848 57.0846 165.696 57.0846ZM164.334 51.4169C164.456 51.6072 164.618 51.7499 164.822 51.8451C165.038 51.9266 165.276 51.9674 165.533 51.9674C165.831 51.9674 166.089 51.8994 166.306 51.7635C166.536 51.6276 166.652 51.4509 166.652 51.2334C166.652 50.9888 166.55 50.7781 166.347 50.6014C166.157 50.4247 165.879 50.3364 165.513 50.3364C165.147 50.3364 164.855 50.4519 164.639 50.683C164.435 50.9004 164.334 51.1451 164.334 51.4169Z" fill="#3F466A"/>
<path d="M172.522 47.1967C171.858 47.1967 171.295 46.9589 170.835 46.4832C170.374 45.9939 170.143 45.4026 170.143 44.7095C170.143 44.0299 170.374 43.4523 170.835 42.9766C171.295 42.4873 171.858 42.2426 172.522 42.2426C173.173 42.2426 173.729 42.4873 174.19 42.9766C174.664 43.4523 174.901 44.0299 174.901 44.7095C174.901 45.4026 174.664 45.9939 174.19 46.4832C173.729 46.9589 173.173 47.1967 172.522 47.1967ZM172.522 57.0846C171.966 57.0846 171.553 56.9283 171.282 56.6157C171.024 56.2895 170.848 55.807 170.753 55.1682C170.672 54.5158 170.631 53.5916 170.631 52.3955C170.631 51.3897 170.679 50.5946 170.774 50.0102C170.882 49.4258 171.072 48.9908 171.343 48.7054C171.614 48.42 172.007 48.2773 172.522 48.2773C173.078 48.2773 173.485 48.4404 173.742 48.7666C174.013 49.0792 174.19 49.5617 174.271 50.2141C174.366 50.8529 174.413 51.7703 174.413 52.9664C174.413 53.9721 174.359 54.7672 174.251 55.3517C174.156 55.9361 173.973 56.371 173.702 56.6565C173.43 56.9419 173.037 57.0846 172.522 57.0846Z" fill="#3F466A"/>
<path d="M178.097 57.0846C177.23 57.0846 176.647 56.5749 176.349 55.5556C176.064 54.5362 175.922 53.1295 175.922 51.3354C175.922 50.5199 175.955 49.8403 176.023 49.2966C176.105 48.7394 176.288 48.2705 176.572 47.8899C176.87 47.4958 177.325 47.2987 177.935 47.2987C178.314 47.2987 178.646 47.387 178.931 47.5637C179.229 47.7404 179.419 47.9918 179.5 48.318C179.798 48.0462 180.185 47.8423 180.659 47.7064C181.134 47.5705 181.642 47.5025 182.184 47.5025C182.618 47.5025 183.059 47.6113 183.506 47.8287C183.967 48.0462 184.346 48.3452 184.644 48.7258C184.956 49.0928 185.112 49.4937 185.112 49.9286C185.112 50.3636 184.956 50.7509 184.644 51.0907C184.346 51.4169 183.946 51.58 183.445 51.58C183.282 51.58 183.126 51.5596 182.977 51.5189C182.842 51.4781 182.72 51.4373 182.611 51.3965C182.34 51.2878 182.123 51.2334 181.961 51.2334C181.432 51.2334 180.964 51.4441 180.558 51.8654C180.164 52.2732 179.968 52.8033 179.968 53.4557C179.968 54.176 179.941 54.774 179.887 55.2497C179.832 55.7254 179.67 56.1536 179.399 56.5341C179.127 56.9011 178.694 57.0846 178.097 57.0846Z" fill="#3F466A"/>
<path d="M189.172 57.0846C188.115 57.0846 187.247 56.8468 186.57 56.371C185.892 55.8817 185.553 55.1818 185.553 54.2711C185.553 53.4828 185.899 52.8576 186.59 52.3955C187.281 51.9334 188.142 51.7023 189.172 51.7023C189.552 51.7023 189.904 51.7363 190.23 51.8043C190.568 51.8586 190.799 51.9266 190.921 52.0082C190.921 51.6684 190.779 51.3897 190.494 51.1723C190.209 50.9412 189.775 50.8257 189.193 50.8257C188.935 50.8257 188.725 50.8461 188.562 50.8868C188.4 50.9276 188.223 50.9888 188.034 51.0703C187.844 51.1519 187.668 51.213 187.505 51.2538C187.356 51.2946 187.153 51.315 186.895 51.315C186.461 51.315 186.122 51.2062 185.878 50.9888C185.634 50.7577 185.512 50.4111 185.512 49.949C185.512 49.419 185.702 48.9704 186.082 48.6035C186.475 48.2365 186.963 47.9647 187.546 47.788C188.128 47.5977 188.711 47.5025 189.294 47.5025C190.446 47.5025 191.409 47.72 192.182 48.1549C192.968 48.5763 193.544 49.1403 193.91 49.8471C194.289 50.5539 194.479 51.3354 194.479 52.1916C194.479 52.6538 194.439 53.0819 194.357 53.476C194.289 53.8702 194.195 54.176 194.073 54.3935C194.262 54.5566 194.405 54.7469 194.5 54.9643C194.608 55.1818 194.662 55.406 194.662 55.6371C194.662 56.0313 194.527 56.371 194.256 56.6565C193.998 56.9419 193.652 57.0846 193.219 57.0846C192.893 57.0846 192.629 57.037 192.426 56.9419C192.222 56.8468 192.005 56.6972 191.775 56.4934C191.436 56.6972 191.063 56.8468 190.657 56.9419C190.263 57.037 189.769 57.0846 189.172 57.0846ZM189.579 55.0255C189.864 55.0255 190.087 54.9643 190.25 54.842C190.426 54.7197 190.514 54.5702 190.514 54.3935C190.514 54.2168 190.426 54.0673 190.25 53.945C190.087 53.8226 189.864 53.7615 189.579 53.7615C189.294 53.7615 189.064 53.8226 188.888 53.945C188.725 54.0673 188.644 54.2168 188.644 54.3935C188.644 54.5702 188.725 54.7197 188.888 54.842C189.064 54.9643 189.294 55.0255 189.579 55.0255Z" fill="#3F466A"/>
<path d="M206.756 57.0642C205.889 57.0642 205.069 56.8535 204.296 56.4322C203.537 55.9973 202.927 55.4128 202.466 54.6789C202.005 53.945 201.775 53.1227 201.775 52.212C201.775 51.2606 201.999 50.4315 202.446 49.7248C202.907 49.0044 203.51 48.454 204.256 48.0734C205.015 47.6928 205.828 47.5025 206.695 47.5025C207.522 47.5025 208.268 47.6656 208.932 47.9918C209.596 48.318 210.111 48.7462 210.477 49.2762C210.843 49.7927 211.026 50.3364 211.026 50.9072C211.026 51.3829 210.877 51.7499 210.579 52.0082C210.294 52.2664 209.867 52.3955 209.298 52.3955C209 52.3955 208.769 52.3411 208.607 52.2324C208.444 52.1237 208.275 51.9606 208.098 51.7431C207.936 51.5392 207.78 51.3897 207.631 51.2946C207.495 51.1859 207.299 51.1315 207.041 51.1315C206.675 51.1315 206.363 51.2606 206.106 51.5189C205.848 51.7635 205.719 52.0829 205.719 52.4771C205.719 52.8848 205.841 53.211 206.085 53.4557C206.343 53.7003 206.662 53.8226 207.041 53.8226C207.285 53.8226 207.475 53.7887 207.61 53.7207C207.746 53.6527 207.895 53.544 208.058 53.3945C208.248 53.2314 208.424 53.1159 208.586 53.0479C208.749 52.9664 208.986 52.9256 209.298 52.9256C209.854 52.9256 210.281 53.0751 210.579 53.3741C210.877 53.6731 211.026 54.0197 211.026 54.4139C211.026 54.876 210.843 55.3109 210.477 55.7187C210.125 56.1264 209.623 56.4526 208.973 56.6972C208.322 56.9419 207.583 57.0642 206.756 57.0642Z" fill="#3F466A"/>
<path d="M217.124 57.105C216.148 57.1186 215.274 56.9147 214.501 56.4934C213.742 56.072 213.145 55.4944 212.712 54.7604C212.292 54.0129 212.068 53.1838 212.041 52.2732C212.027 51.3626 212.237 50.5471 212.671 49.8267C213.105 49.1064 213.708 48.5355 214.481 48.1142C215.267 47.6928 216.148 47.4822 217.124 47.4822C218.073 47.4822 218.927 47.686 219.686 48.0938C220.459 48.5015 221.069 49.0724 221.516 49.8063C221.963 50.5403 222.201 51.3626 222.228 52.2732C222.241 53.1566 222.031 53.9653 221.597 54.6993C221.164 55.4196 220.554 55.9973 219.767 56.4322C218.995 56.8671 218.114 57.0914 217.124 57.105ZM217.185 54.1284C217.551 54.1284 217.87 53.9857 218.141 53.7003C218.412 53.4149 218.547 53.0819 218.547 52.7013C218.547 52.3208 218.412 51.9946 218.141 51.7227C217.87 51.4373 217.551 51.2946 217.185 51.2946C216.819 51.2946 216.5 51.4373 216.229 51.7227C215.958 51.9946 215.823 52.3208 215.823 52.7013C215.823 53.0819 215.958 53.4149 216.229 53.7003C216.5 53.9857 216.819 54.1284 217.185 54.1284ZM216.331 46.8502C216.046 46.8502 215.809 46.755 215.619 46.5647C215.43 46.3609 215.335 46.1366 215.335 45.8919C215.335 45.6473 215.47 45.3347 215.741 44.9541C216.026 44.56 216.351 44.2202 216.717 43.9348C217.097 43.6357 217.415 43.4862 217.673 43.4862C218.066 43.4862 218.378 43.6222 218.608 43.894C218.839 44.1522 218.947 44.4309 218.934 44.7299C218.934 44.9745 218.771 45.2667 218.446 45.6065C218.12 45.9327 217.748 46.2249 217.327 46.4832C216.921 46.7278 216.589 46.8502 216.331 46.8502Z" fill="#3F466A"/>
<path d="M227.144 57.0846C225.951 57.0846 225.002 56.8875 224.297 56.4934C223.592 56.0992 223.24 55.5895 223.24 54.9643C223.24 54.5566 223.375 54.244 223.646 54.0265C223.931 53.7954 224.29 53.6799 224.724 53.6799C224.968 53.6799 225.165 53.7139 225.314 53.7818C225.463 53.8498 225.612 53.945 225.761 54.0673C225.87 54.1624 225.958 54.2304 226.025 54.2711C226.107 54.3119 226.202 54.3323 226.31 54.3323C226.595 54.3323 226.737 54.2304 226.737 54.0265C226.737 53.8362 226.663 53.6935 226.513 53.5984C226.364 53.4896 226.107 53.3605 225.741 53.211C225.402 53.0751 225.178 52.9799 225.07 52.9256C224.446 52.6266 223.985 52.2732 223.687 51.8654C223.389 51.4577 223.24 51.0228 223.24 50.5606C223.24 50.0442 223.423 49.5549 223.789 49.0928C224.168 48.6171 224.697 48.2365 225.375 47.9511C226.066 47.6521 226.859 47.5025 227.754 47.5025C228.526 47.5025 229.225 47.6113 229.848 47.8287C230.485 48.0462 230.987 48.3452 231.353 48.7258C231.719 49.0928 231.902 49.5005 231.902 49.949C231.902 50.3704 231.766 50.6898 231.495 50.9072C231.238 51.1247 230.885 51.2334 230.438 51.2334C230.262 51.2334 230.119 51.2198 230.011 51.1927C229.916 51.1519 229.787 51.0907 229.624 51.0092C229.53 50.9548 229.428 50.9072 229.319 50.8665C229.225 50.8257 229.116 50.8053 228.994 50.8053C228.886 50.8053 228.791 50.8461 228.709 50.9276C228.628 50.9956 228.587 51.0839 228.587 51.1927C228.587 51.3965 228.737 51.546 229.035 51.6412C229.821 51.8994 230.451 52.2256 230.926 52.6198C231.414 53.0139 231.658 53.5576 231.658 54.2508C231.658 55.1342 231.244 55.8274 230.417 56.3303C229.604 56.8332 228.513 57.0846 227.144 57.0846Z" fill="#3F466A"/>
<path d="M239.365 57.0846C238.742 57.0846 238.315 56.8739 238.084 56.4526C237.854 56.0313 237.738 55.3857 237.738 54.5158C237.738 53.877 237.732 53.4217 237.718 53.1498C237.705 52.8644 237.65 52.6266 237.556 52.4363C237.474 52.246 237.325 52.1509 237.108 52.1509C236.851 52.1509 236.661 52.2392 236.539 52.4159C236.417 52.579 236.342 52.7965 236.315 53.0683C236.302 53.3265 236.295 53.7207 236.295 54.2508C236.295 54.9032 236.268 55.4196 236.214 55.8002C236.159 56.1672 236.017 56.473 235.787 56.7176C235.556 56.9487 235.197 57.0642 234.709 57.0642C233.245 57.0642 232.513 55.2022 232.513 51.4781C232.513 50.2141 232.621 49.2355 232.838 48.5423C233.069 47.8355 233.496 47.3938 234.119 47.2171C234.35 47.1492 234.56 47.1152 234.75 47.1152C235.034 47.1152 235.292 47.1763 235.522 47.2987C235.753 47.421 235.915 47.5909 236.01 47.8084C236.2 47.6996 236.39 47.6181 236.58 47.5637C236.769 47.5093 237.04 47.4822 237.393 47.4822C237.827 47.4822 238.233 47.5909 238.613 47.8084C239.006 48.0122 239.284 48.3044 239.446 48.685C239.799 48.2773 240.151 47.9783 240.504 47.788C240.87 47.5841 241.337 47.4822 241.907 47.4822C242.747 47.4822 243.479 47.7336 244.103 48.2365C244.74 48.7258 245.228 49.4054 245.567 50.2752C245.919 51.1315 246.095 52.0829 246.095 53.1295C246.095 54.2983 245.94 55.2497 245.628 55.9837C245.316 56.7176 244.774 57.0846 244.001 57.0846C243.486 57.0846 243.113 56.9555 242.883 56.6972C242.666 56.439 242.53 56.1196 242.476 55.739C242.435 55.3449 242.415 54.774 242.415 54.0265C242.415 53.3741 242.368 52.8984 242.273 52.5994C242.178 52.3004 241.954 52.1509 241.602 52.1509C241.344 52.1509 241.182 52.2936 241.114 52.579C241.046 52.8508 241.012 53.3061 241.012 53.945C240.999 54.0673 240.992 54.2576 240.992 54.5158C240.965 55.3857 240.836 56.0313 240.605 56.4526C240.375 56.8739 239.962 57.0846 239.365 57.0846Z" fill="#3F466A"/>
<path d="M249.089 47.1967C248.425 47.1967 247.863 46.9589 247.402 46.4832C246.941 45.9939 246.71 45.4026 246.71 44.7095C246.71 44.0299 246.941 43.4523 247.402 42.9766C247.863 42.4873 248.425 42.2426 249.089 42.2426C249.74 42.2426 250.296 42.4873 250.757 42.9766C251.231 43.4523 251.468 44.0299 251.468 44.7095C251.468 45.4026 251.231 45.9939 250.757 46.4832C250.296 46.9589 249.74 47.1967 249.089 47.1967ZM249.089 57.0846C248.534 57.0846 248.12 56.9283 247.849 56.6157C247.591 56.2895 247.415 55.807 247.32 55.1682C247.239 54.5158 247.198 53.5916 247.198 52.3955C247.198 51.3897 247.246 50.5946 247.341 50.0102C247.449 49.4258 247.639 48.9908 247.91 48.7054C248.181 48.42 248.574 48.2773 249.089 48.2773C249.645 48.2773 250.052 48.4404 250.309 48.7666C250.58 49.0792 250.757 49.5617 250.838 50.2141C250.933 50.8529 250.98 51.7703 250.98 52.9664C250.98 53.9721 250.926 54.7672 250.818 55.3517C250.723 55.9361 250.54 56.371 250.269 56.6565C249.998 56.9419 249.604 57.0846 249.089 57.0846Z" fill="#3F466A"/>
<path d="M257.073 57.0642C256.206 57.0642 255.385 56.8535 254.613 56.4322C253.854 55.9973 253.244 55.4128 252.783 54.6789C252.322 53.945 252.091 53.1227 252.091 52.212C252.091 51.2606 252.315 50.4315 252.762 49.7248C253.223 49.0044 253.827 48.454 254.572 48.0734C255.331 47.6928 256.145 47.5025 257.012 47.5025C257.839 47.5025 258.585 47.6656 259.249 47.9918C259.913 48.318 260.428 48.7462 260.794 49.2762C261.16 49.7927 261.343 50.3364 261.343 50.9072C261.343 51.3829 261.194 51.7499 260.896 52.0082C260.611 52.2664 260.184 52.3955 259.615 52.3955C259.317 52.3955 259.086 52.3411 258.923 52.2324C258.761 52.1237 258.591 51.9606 258.415 51.7431C258.252 51.5392 258.097 51.3897 257.947 51.2946C257.812 51.1859 257.615 51.1315 257.358 51.1315C256.992 51.1315 256.68 51.2606 256.422 51.5189C256.165 51.7635 256.036 52.0829 256.036 52.4771C256.036 52.8848 256.158 53.211 256.402 53.4557C256.66 53.7003 256.978 53.8226 257.358 53.8226C257.602 53.8226 257.792 53.7887 257.927 53.7207C258.063 53.6527 258.212 53.544 258.374 53.3945C258.564 53.2314 258.74 53.1159 258.903 53.0479C259.066 52.9664 259.303 52.9256 259.615 52.9256C260.171 52.9256 260.598 53.0751 260.896 53.3741C261.194 53.6731 261.343 54.0197 261.343 54.4139C261.343 54.876 261.16 55.3109 260.794 55.7187C260.442 56.1264 259.94 56.4526 259.289 56.6972C258.639 56.9419 257.9 57.0642 257.073 57.0642Z" fill="#3F466A"/>
<path d="M265.819 57.0846C264.761 57.0846 263.894 56.8468 263.216 56.371C262.538 55.8817 262.199 55.1818 262.199 54.2711C262.199 53.4828 262.545 52.8576 263.236 52.3955C263.928 51.9334 264.789 51.7023 265.819 51.7023C266.198 51.7023 266.551 51.7363 266.876 51.8043C267.215 51.8586 267.445 51.9266 267.567 52.0082C267.567 51.6684 267.425 51.3897 267.14 51.1723C266.856 50.9412 266.422 50.8257 265.839 50.8257C265.582 50.8257 265.371 50.8461 265.209 50.8868C265.046 50.9276 264.87 50.9888 264.68 51.0703C264.49 51.1519 264.314 51.213 264.151 51.2538C264.002 51.2946 263.799 51.315 263.541 51.315C263.108 51.315 262.769 51.2062 262.525 50.9888C262.281 50.7577 262.159 50.4111 262.159 49.949C262.159 49.419 262.349 48.9704 262.728 48.6035C263.121 48.2365 263.609 47.9647 264.192 47.788C264.775 47.5977 265.358 47.5025 265.941 47.5025C267.093 47.5025 268.055 47.72 268.828 48.1549C269.614 48.5763 270.19 49.1403 270.556 49.8471C270.936 50.5539 271.126 51.3354 271.126 52.1916C271.126 52.6538 271.085 53.0819 271.004 53.476C270.936 53.8702 270.841 54.176 270.719 54.3935C270.909 54.5566 271.051 54.7469 271.146 54.9643C271.254 55.1818 271.309 55.406 271.309 55.6371C271.309 56.0313 271.173 56.371 270.902 56.6565C270.645 56.9419 270.299 57.0846 269.865 57.0846C269.54 57.0846 269.275 57.037 269.072 56.9419C268.869 56.8468 268.652 56.6972 268.421 56.4934C268.083 56.6972 267.71 56.8468 267.303 56.9419C266.91 57.037 266.415 57.0846 265.819 57.0846ZM266.225 55.0255C266.51 55.0255 266.734 54.9643 266.896 54.842C267.073 54.7197 267.161 54.5702 267.161 54.3935C267.161 54.2168 267.073 54.0673 266.896 53.945C266.734 53.8226 266.51 53.7615 266.225 53.7615C265.941 53.7615 265.71 53.8226 265.534 53.945C265.371 54.0673 265.29 54.2168 265.29 54.3935C265.29 54.5702 265.371 54.7197 265.534 54.842C265.71 54.9643 265.941 55.0255 266.225 55.0255Z" fill="#3F466A"/>
<path d="M283.261 57.0846C282.298 57.0846 281.444 56.8535 280.699 56.3914C279.967 55.9157 279.404 55.3041 279.011 54.5566C278.618 53.7954 278.421 52.9867 278.421 52.1305C278.421 51.1247 278.625 50.2752 279.031 49.5821C279.452 48.8753 279.987 48.352 280.638 48.0122C281.302 47.6724 282.014 47.5025 282.773 47.5025C283.532 47.5025 284.21 47.6656 284.806 47.9918C284.779 47.7064 284.725 47.4006 284.643 47.0744C284.576 46.7482 284.528 46.5443 284.501 46.4628C284.393 46.0415 284.311 45.6881 284.257 45.4026C284.203 45.1172 284.176 44.8318 284.176 44.5464C284.176 43.9755 284.345 43.5406 284.684 43.2416C285.023 42.9426 285.43 42.7931 285.904 42.7931C286.663 42.7931 287.28 43.1736 287.754 43.9348C288.229 44.6959 288.568 45.6405 288.771 46.7686C288.988 47.8967 289.096 49.0384 289.096 50.1937C289.096 51.7567 288.737 53.2994 288.019 54.8216C287.314 56.3303 285.728 57.0846 283.261 57.0846ZM283.383 53.8634C283.749 53.8634 284.067 53.7275 284.338 53.4557C284.609 53.1702 284.745 52.8372 284.745 52.4567C284.745 52.0761 284.609 51.7431 284.338 51.4577C284.067 51.1723 283.749 51.0296 283.383 51.0296C283.017 51.0296 282.691 51.1723 282.407 51.4577C282.136 51.7431 282 52.0761 282 52.4567C282 52.8372 282.136 53.1702 282.407 53.4557C282.691 53.7275 283.017 53.8634 283.383 53.8634Z" fill="#3F466A"/>
<path d="M294.803 57.105C293.827 57.1186 292.953 56.9147 292.18 56.4934C291.421 56.072 290.825 55.4944 290.391 54.7604C289.971 54.0129 289.747 53.1838 289.72 52.2732C289.706 51.3626 289.916 50.5471 290.35 49.8267C290.784 49.1064 291.387 48.5355 292.16 48.1142C292.946 47.6928 293.827 47.4822 294.803 47.4822C295.752 47.4822 296.606 47.686 297.365 48.0938C298.138 48.5015 298.748 49.0724 299.195 49.8063C299.642 50.5403 299.88 51.3626 299.907 52.2732C299.92 53.1566 299.71 53.9653 299.276 54.6993C298.843 55.4196 298.233 55.9973 297.446 56.4322C296.674 56.8671 295.793 57.0914 294.803 57.105ZM294.864 54.1284C295.23 54.1284 295.549 53.9857 295.82 53.7003C296.091 53.4149 296.226 53.0819 296.226 52.7013C296.226 52.3208 296.091 51.9946 295.82 51.7227C295.549 51.4373 295.23 51.2946 294.864 51.2946C294.498 51.2946 294.179 51.4373 293.908 51.7227C293.637 51.9946 293.502 52.3208 293.502 52.7013C293.502 53.0819 293.637 53.4149 293.908 53.7003C294.179 53.9857 294.498 54.1284 294.864 54.1284Z" fill="#3F466A"/>
<path d="M311.935 57.0846C310.946 57.0846 310.078 56.84 309.333 56.3507C308.587 55.8478 308.011 55.1546 307.604 54.2711C307.211 53.3741 307.015 52.3411 307.015 51.1723C307.015 50.0306 307.198 49.1335 307.564 48.4811C307.93 47.8287 308.438 47.5025 309.089 47.5025C310.241 47.5025 310.817 48.0938 310.817 49.2762C310.817 49.5209 310.81 49.7384 310.797 49.9286C310.783 50.1053 310.77 50.2616 310.756 50.3975C310.702 50.9412 310.675 51.3761 310.675 51.7023C310.675 52.3004 310.797 52.7557 311.041 53.0683C311.285 53.3809 311.583 53.5372 311.935 53.5372C312.301 53.5372 312.6 53.3877 312.83 53.0887C313.074 52.7761 313.196 52.314 313.196 51.7023C313.196 51.2674 313.176 50.8665 313.135 50.4995C313.122 50.3772 313.108 50.2005 313.094 49.9694C313.081 49.7248 313.074 49.5005 313.074 49.2966C313.074 48.1006 313.65 47.5025 314.802 47.5025C315.453 47.5025 315.955 47.8287 316.307 48.4811C316.673 49.1199 316.856 50.017 316.856 51.1723C316.856 52.9799 316.436 54.4207 315.595 55.4944C314.755 56.5545 313.535 57.0846 311.935 57.0846Z" fill="#3F466A"/>
<path d="M325.769 57.0846C325.281 57.0846 324.915 56.9487 324.671 56.6769C324.441 56.405 324.298 56.072 324.244 55.6779C324.19 55.2837 324.163 54.774 324.163 54.1488C324.163 53.3469 324.054 52.7285 323.837 52.2936C323.62 51.8586 323.268 51.6412 322.78 51.6412C322.333 51.6412 321.994 51.8586 321.763 52.2936C321.546 52.7149 321.438 53.2994 321.438 54.0469C321.438 54.7672 321.418 55.3109 321.377 55.6779C321.336 56.0448 321.201 56.371 320.97 56.6565C320.74 56.9283 320.36 57.0642 319.832 57.0642C319.059 57.0642 318.517 56.5681 318.205 55.5759C317.893 54.5702 317.737 53.3945 317.737 52.0489C317.737 48.7869 318.422 47.156 319.791 47.156C320.171 47.156 320.482 47.2511 320.726 47.4414C320.97 47.6181 321.14 47.8763 321.235 48.2161C321.411 48.0258 321.682 47.8559 322.048 47.7064C322.428 47.5569 322.827 47.4822 323.248 47.4822C324.739 47.4822 325.85 48.0258 326.582 49.1131C327.328 50.2005 327.701 51.6752 327.701 53.5372C327.701 54.6381 327.558 55.508 327.274 56.1468C326.989 56.772 326.487 57.0846 325.769 57.0846Z" fill="#3F466A"/>
<path d="M331.097 47.1967C330.433 47.1967 329.87 46.9589 329.409 46.4832C328.949 45.9939 328.718 45.4026 328.718 44.7095C328.718 44.0299 328.949 43.4523 329.409 42.9766C329.87 42.4873 330.433 42.2426 331.097 42.2426C331.748 42.2426 332.304 42.4873 332.764 42.9766C333.239 43.4523 333.476 44.0299 333.476 44.7095C333.476 45.4026 333.239 45.9939 332.764 46.4832C332.304 46.9589 331.748 47.1967 331.097 47.1967ZM331.097 57.0846C330.541 57.0846 330.128 56.9283 329.857 56.6157C329.599 56.2895 329.423 55.807 329.328 55.1682C329.247 54.5158 329.206 53.5916 329.206 52.3955C329.206 51.3897 329.254 50.5946 329.348 50.0102C329.457 49.4258 329.647 48.9908 329.918 48.7054C330.189 48.42 330.582 48.2773 331.097 48.2773C331.653 48.2773 332.06 48.4404 332.317 48.7666C332.588 49.0792 332.764 49.5617 332.846 50.2141C332.941 50.8529 332.988 51.7703 332.988 52.9664C332.988 53.9721 332.934 54.7672 332.825 55.3517C332.731 55.9361 332.548 56.371 332.276 56.6565C332.005 56.9419 331.612 57.0846 331.097 57.0846Z" fill="#3F466A"/>
<path d="M339.325 57.0642C339 57.0642 338.695 57.0234 338.41 56.9419C338.139 56.8603 337.82 56.6769 337.454 56.3914C337.034 56.0516 336.56 55.4808 336.031 54.6789C335.502 53.8634 335.048 52.9867 334.669 52.0489C334.289 51.0975 334.099 50.2412 334.099 49.4801C334.099 48.9093 334.262 48.4404 334.587 48.0734C334.926 47.6928 335.319 47.5025 335.767 47.5025C336.309 47.5025 336.77 47.7132 337.149 48.1346C337.542 48.5423 337.868 49.052 338.125 49.6636C338.396 50.2616 338.701 51.0703 339.04 52.0897C339.081 52.212 339.122 52.3479 339.162 52.4974C339.216 52.6334 339.271 52.7761 339.325 52.9256L339.528 52.3344C339.908 51.247 340.233 50.3908 340.504 49.7655C340.775 49.1267 341.114 48.5899 341.521 48.1549C341.928 47.7064 342.402 47.489 342.944 47.5025C343.378 47.5161 343.744 47.6792 344.042 47.9918C344.354 48.3044 344.51 48.7598 344.51 49.3578C344.51 50.1733 344.334 51.0296 343.981 51.9266C343.629 52.8236 343.215 53.6391 342.741 54.3731C342.266 55.0934 341.86 55.6235 341.521 55.9633C341.223 56.3031 340.87 56.5749 340.464 56.7788C340.07 56.9691 339.691 57.0642 339.325 57.0642Z" fill="#3F466A"/>
<path d="M349.985 57.0846C348.982 57.0846 348.094 56.8875 347.321 56.4934C346.549 56.0992 345.945 55.5488 345.512 54.842C345.091 54.1216 344.881 53.3129 344.881 52.4159C344.881 51.5324 345.091 50.717 345.512 49.9694C345.945 49.2219 346.542 48.6238 347.301 48.1753C348.06 47.7268 348.921 47.5025 349.883 47.5025C350.751 47.5025 351.517 47.6792 352.181 48.0326C352.845 48.386 353.354 48.8549 353.706 49.4393C354.058 50.0102 354.235 50.6082 354.235 51.2334C354.235 52.2528 353.848 53.0003 353.076 53.476C352.317 53.9382 351.408 54.1692 350.351 54.1692C349.646 54.1692 349.05 54.0809 348.562 53.9042C348.968 54.5702 349.639 54.9032 350.575 54.9032C350.954 54.9032 351.361 54.8556 351.795 54.7604C351.957 54.7197 352.113 54.6993 352.262 54.6993C352.561 54.6993 352.798 54.774 352.974 54.9235C353.164 55.0731 353.259 55.2769 353.259 55.5352C353.259 55.9565 353.001 56.3235 352.486 56.6361C351.971 56.9351 351.137 57.0846 349.985 57.0846ZM348.623 51.4169C348.745 51.6072 348.907 51.7499 349.111 51.8451C349.328 51.9266 349.565 51.9674 349.822 51.9674C350.121 51.9674 350.378 51.8994 350.595 51.7635C350.825 51.6276 350.941 51.4509 350.941 51.2334C350.941 50.9888 350.839 50.7781 350.636 50.6014C350.446 50.4247 350.168 50.3364 349.802 50.3364C349.436 50.3364 349.145 50.4519 348.928 50.683C348.724 50.9004 348.623 51.1451 348.623 51.4169Z" fill="#3F466A"/>
<path d="M357.224 57.0846C356.356 57.0846 355.773 56.5749 355.475 55.5556C355.19 54.5362 355.048 53.1295 355.048 51.3354C355.048 50.5199 355.082 49.8403 355.15 49.2966C355.231 48.7394 355.414 48.2705 355.699 47.8899C355.997 47.4958 356.451 47.2987 357.061 47.2987C357.441 47.2987 357.773 47.387 358.057 47.5637C358.355 47.7404 358.545 47.9918 358.627 48.318C358.925 48.0462 359.311 47.8423 359.786 47.7064C360.26 47.5705 360.768 47.5025 361.311 47.5025C361.744 47.5025 362.185 47.6113 362.632 47.8287C363.093 48.0462 363.473 48.3452 363.771 48.7258C364.083 49.0928 364.239 49.4937 364.239 49.9286C364.239 50.3636 364.083 50.7509 363.771 51.0907C363.473 51.4169 363.073 51.58 362.571 51.58C362.409 51.58 362.253 51.5596 362.104 51.5189C361.968 51.4781 361.846 51.4373 361.738 51.3965C361.466 51.2878 361.25 51.2334 361.087 51.2334C360.558 51.2334 360.091 51.4441 359.684 51.8654C359.291 52.2732 359.094 52.8033 359.094 53.4557C359.094 54.176 359.067 54.774 359.013 55.2497C358.959 55.7254 358.796 56.1536 358.525 56.5341C358.254 56.9011 357.82 57.0846 357.224 57.0846Z" fill="#3F466A"/>
<path d="M368.443 57.0846C367.251 57.0846 366.302 56.8875 365.597 56.4934C364.892 56.0992 364.539 55.5895 364.539 54.9643C364.539 54.5566 364.675 54.244 364.946 54.0265C365.231 53.7954 365.59 53.6799 366.024 53.6799C366.268 53.6799 366.464 53.7139 366.613 53.7818C366.763 53.8498 366.912 53.945 367.061 54.0673C367.169 54.1624 367.257 54.2304 367.325 54.2711C367.406 54.3119 367.501 54.3323 367.61 54.3323C367.894 54.3323 368.037 54.2304 368.037 54.0265C368.037 53.8362 367.962 53.6935 367.813 53.5984C367.664 53.4896 367.406 53.3605 367.04 53.211C366.702 53.0751 366.478 52.9799 366.369 52.9256C365.746 52.6266 365.285 52.2732 364.987 51.8654C364.689 51.4577 364.539 51.0228 364.539 50.5606C364.539 50.0442 364.722 49.5549 365.088 49.0928C365.468 48.6171 365.997 48.2365 366.674 47.9511C367.366 47.6521 368.159 47.5025 369.053 47.5025C369.826 47.5025 370.524 47.6113 371.148 47.8287C371.785 48.0462 372.286 48.3452 372.652 48.7258C373.018 49.0928 373.201 49.5005 373.201 49.949C373.201 50.3704 373.066 50.6898 372.795 50.9072C372.537 51.1247 372.185 51.2334 371.737 51.2334C371.561 51.2334 371.419 51.2198 371.31 51.1927C371.215 51.1519 371.087 51.0907 370.924 51.0092C370.829 50.9548 370.728 50.9072 370.619 50.8665C370.524 50.8257 370.416 50.8053 370.294 50.8053C370.185 50.8053 370.09 50.8461 370.009 50.9276C369.928 50.9956 369.887 51.0839 369.887 51.1927C369.887 51.3965 370.036 51.546 370.334 51.6412C371.121 51.8994 371.751 52.2256 372.225 52.6198C372.713 53.0139 372.957 53.5576 372.957 54.2508C372.957 55.1342 372.544 55.8274 371.717 56.3303C370.904 56.8332 369.812 57.0846 368.443 57.0846Z" fill="#3F466A"/>
<path d="M378.896 57.105C377.92 57.1186 377.045 56.9147 376.273 56.4934C375.514 56.072 374.917 55.4944 374.483 54.7604C374.063 54.0129 373.84 53.1838 373.812 52.2732C373.799 51.3626 374.009 50.5471 374.443 49.8267C374.877 49.1064 375.48 48.5355 376.252 48.1142C377.039 47.6928 377.92 47.4822 378.896 47.4822C379.845 47.4822 380.699 47.686 381.458 48.0938C382.23 48.5015 382.84 49.0724 383.288 49.8063C383.735 50.5403 383.972 51.3626 383.999 52.2732C384.013 53.1566 383.803 53.9653 383.369 54.6993C382.935 55.4196 382.325 55.9973 381.539 56.4322C380.766 56.8671 379.885 57.0914 378.896 57.105ZM378.957 54.1284C379.323 54.1284 379.641 53.9857 379.912 53.7003C380.184 53.4149 380.319 53.0819 380.319 52.7013C380.319 52.3208 380.184 51.9946 379.912 51.7227C379.641 51.4373 379.323 51.2946 378.957 51.2946C378.591 51.2946 378.272 51.4373 378.001 51.7227C377.73 51.9946 377.594 52.3208 377.594 52.7013C377.594 53.0819 377.73 53.4149 378.001 53.7003C378.272 53.9857 378.591 54.1284 378.957 54.1284Z" fill="#3F466A"/>
<defs>
<linearGradient id="paint0_linear_56_13" x1="384.549" y1="29.4904" x2="-1.55897e-06" y2="29.4904" gradientUnits="userSpaceOnUse">
<stop stop-color="#111A3A"/>
<stop offset="1" stop-color="#333C65"/>
</linearGradient>
<linearGradient id="paint1_linear_56_13" x1="384.549" y1="29.4904" x2="-1.55897e-06" y2="29.4904" gradientUnits="userSpaceOnUse">
<stop stop-color="#111A3A"/>
<stop offset="1" stop-color="#333C65"/>
</linearGradient>
<linearGradient id="paint2_linear_56_13" x1="384.549" y1="29.4904" x2="-1.55897e-06" y2="29.4904" gradientUnits="userSpaceOnUse">
<stop stop-color="#111A3A"/>
<stop offset="1" stop-color="#333C65"/>
</linearGradient>
<linearGradient id="paint3_linear_56_13" x1="384.549" y1="29.4904" x2="-1.55897e-06" y2="29.4904" gradientUnits="userSpaceOnUse">
<stop stop-color="#111A3A"/>
<stop offset="1" stop-color="#333C65"/>
</linearGradient>
<linearGradient id="paint4_linear_56_13" x1="384.549" y1="29.4904" x2="-1.55897e-06" y2="29.4904" gradientUnits="userSpaceOnUse">
<stop stop-color="#111A3A"/>
<stop offset="1" stop-color="#333C65"/>
</linearGradient>
<linearGradient id="paint5_linear_56_13" x1="384.549" y1="29.4904" x2="-1.55897e-06" y2="29.4904" gradientUnits="userSpaceOnUse">
<stop stop-color="#111A3A"/>
<stop offset="1" stop-color="#333C65"/>
</linearGradient>
<linearGradient id="paint6_linear_56_13" x1="384.549" y1="29.4904" x2="-1.55897e-06" y2="29.4904" gradientUnits="userSpaceOnUse">
<stop stop-color="#111A3A"/>
<stop offset="1" stop-color="#333C65"/>
</linearGradient>
<linearGradient id="paint7_linear_56_13" x1="384.549" y1="29.4904" x2="-1.55897e-06" y2="29.4904" gradientUnits="userSpaceOnUse">
<stop stop-color="#111A3A"/>
<stop offset="1" stop-color="#333C65"/>
</linearGradient>
<linearGradient id="paint8_linear_56_13" x1="384.549" y1="29.4904" x2="-1.55897e-06" y2="29.4904" gradientUnits="userSpaceOnUse">
<stop stop-color="#111A3A"/>
<stop offset="1" stop-color="#333C65"/>
</linearGradient>
<linearGradient id="paint9_linear_56_13" x1="384.549" y1="29.4904" x2="-1.55897e-06" y2="29.4904" gradientUnits="userSpaceOnUse">
<stop stop-color="#111A3A"/>
<stop offset="1" stop-color="#333C65"/>
</linearGradient>
<linearGradient id="paint10_linear_56_13" x1="384.549" y1="29.4904" x2="-1.55897e-06" y2="29.4904" gradientUnits="userSpaceOnUse">
<stop stop-color="#111A3A"/>
<stop offset="1" stop-color="#333C65"/>
</linearGradient>
<linearGradient id="paint11_linear_56_13" x1="384.549" y1="29.4904" x2="-1.55897e-06" y2="29.4904" gradientUnits="userSpaceOnUse">
<stop stop-color="#111A3A"/>
<stop offset="1" stop-color="#333C65"/>
</linearGradient>
</defs>
</svg>
